<?xml version="1.0" standalone="no"?>
<!DOCTYPE svg PUBLIC "-//W3C//DTD SVG 20010904//EN"
 "http://www.w3.org/TR/2001/REC-SVG-20010904/DTD/svg10.dtd">
<svg version="1.0" xmlns="http://www.w3.org/2000/svg"
 width="1911.000000pt" height="925.000000pt" viewBox="0 0 1911.000000 925.000000"
 preserveAspectRatio="xMidYMid meet">
<metadata>
Created by potrace 1.16, written by Peter Selinger 2001-2019
</metadata>
<g transform="translate(0.000000,925.000000) scale(0.100000,-0.100000)"
fill="#000000" stroke="none">
<path d="M2630 8510 l0 -500 720 0 720 0 0 500 0 500 -720 0 -720 0 0 -500z
m341 384 c28 -14 33 -14 56 1 37 25 73 4 73 -42 0 -26 6 -36 25 -45 20 -9 25
-19 25 -45 0 -27 6 -37 30 -51 l30 -17 -2 -125 -2 -125 -3 114 c-4 113 -11
141 -40 141 -11 0 -13 -24 -11 -132 l3 -133 60 -6 60 -6 -67 -1 -68 -2 0 178
c0 172 -5 202 -32 202 -4 0 -9 -80 -10 -177 l-3 -178 -2 178 c-3 136 -6 178
-16 174 -9 -3 -13 -54 -15 -190 l-2 -187 -60 0 -60 0 -2 187 c-2 138 -6 187
-15 191 -10 3 -14 -37 -15 -175 l-3 -178 -2 178 c-2 97 -5 177 -7 177 -3 0
-11 -3 -20 -6 -14 -5 -16 -32 -16 -190 l0 -184 -67 2 -68 2 58 3 57 4 0 140
c0 136 0 139 -20 127 -17 -11 -20 -26 -23 -133 l-3 -120 -2 126 c-2 125 -2
126 23 139 19 10 25 21 25 46 0 27 6 37 30 49 24 12 30 22 30 47 0 18 7 36 18
44 21 17 18 17 53 -2z"/>
<path d="M2923 8883 c-21 -8 -16 -61 7 -73 19 -10 20 -21 20 -196 l0 -185 48
3 47 3 3 183 c2 169 4 183 22 194 44 28 12 91 -35 70 l-25 -12 0 -204 c0 -126
-4 -207 -10 -211 -7 -4 -10 66 -10 204 0 198 -1 211 -19 221 -21 11 -29 11
-48 3z"/>
<path d="M9343 8600 c-74 -30 -48 -170 31 -170 47 0 76 34 76 92 0 30 -6 50
-17 61 -24 21 -63 28 -90 17z"/>
<path d="M12338 7790 c-1 -5 -1 -205 2 -442 7 -647 4 -2320 -5 -2346 -4 -12
-23 -29 -42 -38 -18 -9 -31 -19 -28 -22 5 -6 -102 -52 -122 -52 -6 0 -42 -14
-80 -31 l-68 -31 -220 26 c-121 14 -299 35 -395 47 -96 11 -200 24 -230 29
-30 5 -98 14 -150 21 -120 15 -132 21 -129 64 3 25 -3 39 -19 53 -12 11 -22
26 -22 34 0 23 -10 28 -36 16 -40 -19 -45 -2 -30 102 8 52 17 130 21 172 5 55
12 82 26 94 10 9 21 29 24 45 4 16 11 29 15 29 5 0 7 7 4 15 -5 11 0 13 25 5
17 -5 33 -5 36 0 9 14 -18 28 -70 36 -27 4 -42 10 -32 12 9 2 17 12 17 22 0
14 -5 18 -17 13 -17 -7 -17 -6 0 11 19 19 15 36 -9 36 -8 0 -12 5 -8 11 3 6
16 8 28 5 20 -5 56 8 46 17 -3 2 -43 7 -90 10 l-85 7 -29 -37 c-16 -20 -29
-42 -29 -50 0 -13 -28 -18 -40 -6 -4 3 0 14 9 24 9 10 18 32 20 49 5 40 11 50
27 44 7 -2 24 7 37 21 27 29 40 32 40 9 0 -12 5 -15 23 -9 12 4 37 9 55 12 17
3 32 9 32 13 0 11 -48 60 -59 60 -6 0 -8 7 -5 15 5 11 -1 15 -20 15 -14 0 -26
4 -26 9 0 6 -38 8 -90 6 -54 -3 -90 0 -90 5 0 6 -7 10 -15 10 -9 0 -15 9 -15
21 0 15 -5 19 -15 15 -8 -3 -15 -1 -15 4 0 6 -15 10 -34 10 -19 0 -36 5 -38
11 -2 7 -16 5 -40 -6 -38 -19 -95 -14 -82 6 4 7 -1 7 -15 -1 -16 -8 -26 -8
-35 -1 -7 6 -16 8 -19 4 -4 -3 -12 -2 -19 4 -7 5 -23 10 -35 11 -18 1 -23 -5
-23 -24 0 -13 -4 -24 -10 -24 -5 0 -10 4 -10 9 0 11 -53 1 -65 -13 -5 -6 -41
-12 -79 -13 -56 -2 -72 -7 -83 -23 -9 -12 -30 -22 -61 -26 -35 -4 -54 -13 -68
-31 -63 -81 -125 -117 -144 -84 -7 13 -12 14 -28 4 -11 -6 -28 -10 -39 -7 -10
3 -32 -2 -48 -10 -35 -18 -76 -21 -92 -5 -8 8 -17 8 -31 0 -27 -14 -32 -14
-32 2 0 7 -5 18 -12 25 -9 9 -16 5 -30 -18 -10 -17 -18 -39 -18 -50 0 -10 -9
-22 -20 -25 -11 -4 -18 -10 -15 -15 3 -4 -2 -10 -10 -14 -8 -3 -15 -13 -15
-22 0 -16 2 -16 48 3 15 6 15 -4 1 -48 -20 -62 -23 -65 -28 -24 l-6 40 -27
-41 c-15 -23 -28 -57 -30 -75 -2 -25 -8 -34 -20 -33 -10 0 -49 1 -88 2 l-69 2
0 135 1 135 55 0 c46 0 54 3 51 18 -2 10 -14 18 -31 20 -28 3 -41 23 -51 77
-3 14 -8 30 -13 37 -4 7 -8 31 -9 53 0 22 -4 88 -7 147 l-7 107 37 3 c50 4 55
26 6 30 l-38 3 -3 87 -3 87 32 3 c46 4 50 28 6 28 -34 0 -35 1 -35 40 l-1 40
43 0 c40 0 45 -3 57 -32 l14 -33 5 40 c5 37 7 40 48 48 l42 8 0 363 c0 358 -3
426 -22 426 -25 0 -81 81 -82 119 -1 25 -3 26 -74 29 -67 3 -73 4 -67 22 5 15
2 20 -12 20 -10 0 -28 3 -40 6 -17 5 -22 1 -25 -18 -2 -15 -10 -23 -23 -23
-11 -1 -19 -6 -18 -13 5 -21 -30 -29 -147 -36 -63 -3 -227 -15 -365 -26 -137
-11 -323 -24 -412 -28 -89 -4 -165 -11 -168 -14 -4 -3 1 -30 10 -60 14 -47 15
-125 10 -728 -5 -649 -11 -842 -24 -776 -3 16 -12 31 -18 34 -10 3 -13 -19
-13 -87 0 -56 4 -91 10 -91 6 0 13 6 16 14 6 14 39 11 61 -6 7 -6 19 -6 30 1
12 6 25 6 34 0 16 -10 60 -12 83 -3 19 7 21 30 4 37 -10 4 -10 6 0 6 14 1 16
47 2 56 -21 13 -8 20 38 22 l47 1 20 -61 c25 -77 46 -85 65 -25 l13 43 13 -30
c7 -16 13 -36 14 -43 0 -8 8 -12 18 -10 11 2 24 24 37 61 18 52 45 78 45 43 0
-9 7 -12 20 -9 11 3 28 -1 37 -8 15 -13 13 -15 -17 -19 -74 -11 -61 -70 16
-70 42 0 44 1 44 30 0 42 34 42 49 0 14 -42 -2 -76 -43 -85 -47 -11 -50 -12
-68 -13 -10 -1 -36 -18 -57 -37 l-39 -36 -129 10 c-70 5 -178 13 -239 16
l-112 7 -42 44 c-23 24 -50 44 -61 44 -10 0 -19 5 -19 10 0 6 -10 10 -22 10
-27 0 -78 59 -78 89 0 12 8 21 23 24 l22 4 -22 2 c-29 1 -31 31 -3 38 19 5 29
23 12 23 -16 0 -52 -32 -52 -46 0 -8 -6 -14 -12 -14 -10 0 -10 -2 0 -9 19 -12
11 -75 -10 -79 -12 -2 -15 2 -11 17 15 58 -64 94 -107 49 l-20 -22 0 22 c0 28
-15 36 -34 16 -14 -14 -15 -61 -10 -437 3 -232 7 -424 9 -428 3 -3 28 -4 56
-1 36 3 54 1 59 -8 7 -11 12 -10 25 3 10 10 25 15 38 12 12 -3 41 1 63 9 30
10 45 11 52 4 8 -8 16 -7 27 2 9 7 39 12 72 11 31 0 60 4 63 9 9 15 42 0 36
-16 -7 -18 8 -18 23 0 7 8 34 17 61 21 40 5 48 10 42 23 -5 14 -3 15 9 5 11
-9 18 -8 33 3 11 8 38 14 60 14 38 -1 40 -2 22 -15 -17 -13 -17 -15 -3 -21 21
-8 38 4 35 24 -4 23 -21 40 -53 52 -14 5 -23 15 -20 20 3 6 -4 14 -17 19 -13
6 -18 10 -11 10 7 1 10 8 7 16 -4 8 -1 15 6 15 6 0 8 5 5 10 -9 15 -25 12 -25
-4 0 -15 -37 -32 -47 -22 -3 3 0 13 8 23 12 15 12 16 -4 10 -13 -5 -20 0 -27
17 -5 14 -15 26 -22 29 -7 2 -2 2 12 0 14 -3 27 -8 30 -12 3 -5 16 -12 28 -16
21 -6 23 -4 17 15 -7 21 -5 21 49 15 44 -6 56 -4 56 6 0 8 11 2 25 -13 27 -31
51 -37 41 -12 -4 10 1 22 11 30 18 13 42 20 31 8 -4 -3 2 -14 13 -25 10 -10
19 -26 19 -34 0 -13 -4 -14 -22 -4 -17 9 -24 9 -32 -2 -14 -17 -61 -45 -52
-31 12 20 -5 37 -38 37 -19 0 -38 -4 -42 -8 -4 -4 7 -7 25 -7 27 0 31 -3 26
-19 -3 -11 -1 -22 4 -25 6 -4 8 -13 4 -21 -3 -9 1 -15 11 -15 9 0 16 5 16 11
0 14 81 3 91 -13 5 -7 9 -7 13 1 10 15 46 14 46 -1 0 -9 3 -9 12 0 13 13 50
16 61 5 4 -3 2 -12 -4 -20 -14 -16 -9 -16 25 -3 16 6 27 6 31 0 8 -13 45 -13
45 -1 0 26 234 44 340 26 87 -15 58 -47 -65 -72 -104 -21 -72 -31 42 -14 172
26 260 42 283 53 14 6 39 12 55 13 17 1 62 5 101 9 41 5 74 5 77 -1 3 -5 11
-47 17 -93 6 -47 18 -91 25 -99 14 -14 60 -24 182 -37 41 -4 68 -13 79 -25 13
-14 20 -16 40 -7 19 9 28 8 41 -5 22 -19 113 -34 113 -18 0 6 7 11 15 11 8 0
15 -7 15 -15 0 -11 12 -15 44 -15 25 0 47 -4 50 -9 3 -5 14 -7 25 -4 12 3 20
-2 24 -16 6 -26 61 -30 71 -5 5 12 8 13 20 2 8 -7 12 -16 9 -20 -2 -5 5 -9 16
-9 49 -3 77 -7 99 -14 14 -5 22 -3 22 4 0 6 -7 11 -15 11 -8 0 -15 5 -15 11 0
11 38 3 54 -12 14 -13 -22 -37 -64 -45 -19 -3 -53 -12 -75 -19 -22 -6 -73 -20
-112 -30 -40 -11 -71 -21 -68 -23 5 -6 262 46 318 64 52 18 97 12 97 -12 0 -8
5 -12 10 -9 8 5 7 11 -1 21 -16 20 -7 26 23 15 13 -5 36 -7 51 -4 20 4 27 1
27 -10 0 -18 41 -30 55 -16 7 7 5 13 -5 20 -11 8 -8 9 13 5 20 -5 27 -3 27 9
0 21 7 19 42 -10 16 -14 40 -25 54 -25 13 0 24 -5 24 -11 0 -7 10 -5 25 5 25
16 27 16 46 -6 15 -16 22 -19 26 -10 3 8 9 9 16 4 20 -15 47 -22 47 -12 0 6
-7 10 -15 10 -8 0 -15 3 -15 8 0 4 18 8 40 8 22 1 40 -2 40 -7 0 -5 9 -9 19
-9 11 0 23 -5 27 -11 3 -6 17 -8 30 -5 13 4 23 3 23 -1 -1 -5 3 -19 9 -33 10
-24 11 -24 11 -2 1 13 7 22 16 22 8 0 15 6 15 13 0 8 4 7 10 -3 8 -13 10 -12
10 3 0 9 4 17 10 17 5 0 7 -7 4 -15 -4 -10 0 -15 11 -15 10 0 13 5 9 12 -4 7
-3 8 4 4 7 -4 12 -13 12 -21 0 -18 -30 -28 -45 -15 -9 8 -15 8 -20 0 -3 -5 0
-10 7 -10 38 -1 -85 -42 -270 -90 -37 -9 -48 -17 -40 -26 4 -3 39 4 80 16 147
43 181 50 199 45 11 -4 19 -2 19 5 0 7 6 10 14 7 7 -3 18 -1 24 5 16 16 112
22 112 7 0 -7 -9 -9 -22 -6 -21 6 -70 -23 -68 -40 2 -15 37 -21 71 -12 l34 8
-32 -3 c-23 -2 -33 2 -33 12 0 10 8 12 30 7 23 -5 30 -3 30 8 0 9 14 22 31 31
29 15 30 14 23 -7 -6 -21 -6 -21 13 -4 21 18 69 24 58 7 -3 -5 0 -7 9 -4 9 3
21 -4 31 -20 10 -14 21 -23 26 -20 5 3 22 -4 38 -16 21 -14 32 -17 37 -9 3 6
1 15 -6 19 -7 4 -9 13 -5 20 6 10 10 9 17 -4 12 -22 25 -20 31 4 4 17 8 18 31
7 14 -7 26 -20 26 -29 0 -20 11 -23 27 -7 8 8 13 5 18 -10 3 -12 12 -21 20
-21 7 0 15 -10 17 -22 2 -14 11 -24 23 -25 16 -2 17 -1 4 5 -11 4 -15 17 -13
34 2 20 -3 27 -19 32 -22 5 -22 5 -2 20 28 22 44 20 38 -4 -6 -22 3 -25 27
-11 27 18 31 -1 5 -25 -27 -24 -26 -44 1 -44 8 0 12 4 9 10 -3 6 -1 10 5 10 6
0 15 10 21 23 9 21 9 21 6 -5 -3 -17 1 -29 10 -32 8 -3 12 -2 9 2 -11 18 76
78 96 66 12 -8 -2 -26 -16 -21 -6 3 -20 -1 -31 -9 -20 -15 -16 -17 30 -14 17
1 33 7 36 12 4 6 12 7 18 3 8 -5 9 -11 2 -19 -6 -7 -9 -15 -7 -17 3 -2 -13 -3
-36 -1 -38 4 -39 3 -29 -17 7 -11 19 -21 27 -21 8 0 12 -4 9 -10 -3 -5 -21 -9
-38 -7 -21 1 -31 -2 -30 -10 2 -7 -6 -13 -18 -13 -11 0 -18 4 -15 9 6 10 -24
25 -32 16 -3 -3 -1 -5 5 -5 5 0 10 -7 10 -15 0 -9 -10 -15 -25 -15 -19 0 -22
3 -13 14 9 11 2 13 -38 12 -36 -1 -47 -4 -43 -15 4 -11 1 -11 -16 -2 -14 8
-22 8 -22 2 0 -10 25 -18 60 -21 41 -3 77 -8 91 -14 9 -4 58 7 108 24 51 17
96 28 101 25 6 -4 10 -1 10 4 0 6 5 11 11 11 8 0 10 -14 6 -45 -4 -28 -3 -45
3 -45 14 0 31 46 24 64 -6 16 33 26 62 15 15 -6 12 -8 -13 -8 -18 -1 -33 -6
-33 -12 0 -5 4 -8 8 -5 4 2 22 -2 39 -11 28 -13 31 -19 26 -44 -3 -16 -2 -30
3 -30 52 -9 75 -6 70 8 -3 8 -6 17 -6 19 0 2 -9 4 -20 4 -11 0 -20 6 -20 13 0
29 14 24 55 -19 47 -48 52 -50 78 -30 27 21 20 35 -22 42 -32 5 -38 9 -33 26
3 13 10 17 21 12 9 -4 26 -7 39 -7 12 1 22 -3 22 -9 0 -5 -4 -6 -10 -3 -5 3
-10 2 -10 -2 0 -5 9 -14 21 -21 20 -13 20 -15 4 -32 -9 -10 -58 -32 -108 -50
-51 -18 -106 -39 -124 -46 -17 -8 -37 -14 -45 -14 -7 0 -28 -9 -45 -20 -32
-19 -60 -18 -75 4 -5 6 -8 2 -8 -10 0 -16 -13 -26 -56 -43 -64 -24 -84 -26
-84 -8 0 6 -10 0 -21 -15 -12 -16 -26 -25 -35 -21 -10 4 -12 0 -8 -11 3 -9 11
-16 16 -16 6 0 8 -7 4 -15 -3 -8 -1 -15 5 -15 7 0 8 -12 4 -32 -7 -30 -7 -31
10 -14 46 46 95 58 95 23 0 -7 12 -14 26 -15 34 -3 27 16 -15 39 -26 14 -29
18 -14 21 13 3 11 5 -9 10 -20 4 -28 1 -28 -9 0 -8 -5 -11 -11 -7 -6 3 -15 0
-20 -7 -8 -12 -11 -12 -19 1 -12 20 23 41 130 75 47 15 92 31 100 35 8 4 42
15 75 24 33 10 74 24 90 31 138 65 275 94 309 66 7 -6 16 -8 20 -4 4 4 11 1
16 -7 7 -10 10 -11 10 -2 0 6 5 12 11 12 7 0 9 -10 7 -25 -3 -14 -2 -25 1 -25
4 0 6 -13 5 -30 -2 -29 -1 -30 39 -29 35 0 38 2 20 9 -25 10 -27 17 -14 39 6
9 19 12 40 8 23 -5 31 -3 31 8 0 9 11 13 38 12 43 -2 57 -13 59 -46 2 -31 5
-33 36 -18 27 12 39 44 13 34 -16 -6 -40 16 -30 26 4 3 14 2 23 -2 9 -5 44
-12 79 -16 70 -8 83 -17 47 -33 -17 -8 -25 -8 -25 -1 0 6 -4 7 -10 4 -18 -11
-10 -27 11 -22 12 3 32 1 45 -5 18 -9 28 -8 36 0 9 9 8 12 -5 12 -22 0 -22 20
1 21 76 6 87 4 87 -16 0 -14 9 -21 35 -26 35 -8 60 -2 42 10 -6 4 8 7 31 7 23
0 48 -6 56 -14 10 -10 16 -11 21 -2 12 19 67 2 75 -23 6 -19 8 -19 12 -4 2 9
14 18 26 19 68 4 84 2 80 -9 -4 -9 3 -11 26 -7 17 4 38 3 48 -1 15 -6 13 -9
-12 -16 -16 -5 -43 -6 -60 -3 -27 5 -28 4 -13 -8 17 -12 16 -14 -7 -24 -19 -9
-27 -9 -36 2 -15 19 -40 18 -33 -1 4 -8 12 -15 20 -15 26 0 14 -17 -20 -27
-19 -6 -40 -7 -47 -2 -10 6 -5 9 14 9 17 0 26 4 22 11 -4 6 -13 8 -20 5 -7 -2
-21 2 -32 9 -17 13 -15 14 17 16 32 1 33 2 10 9 -36 12 -62 12 -55 0 3 -5 -3
-20 -15 -32 l-21 -23 23 -9 c33 -14 33 -14 7 -35 -25 -20 -49 -13 -49 15 0 8
-5 14 -11 14 -7 0 -9 -11 -6 -30 7 -33 -3 -42 -63 -55 -19 -4 -44 -18 -55 -31
-16 -18 -27 -22 -54 -19 -19 3 -38 10 -42 16 -4 6 -12 8 -18 5 -6 -4 -9 -12
-6 -17 10 -15 -5 -10 -22 7 -9 8 -22 13 -30 10 -19 -8 -28 21 -12 40 10 13 10
17 0 24 -7 4 -22 5 -32 3 -10 -3 -19 0 -19 6 0 6 -11 11 -25 11 -14 0 -25 5
-25 10 0 6 5 10 11 10 6 0 9 7 5 15 -3 8 -2 15 3 15 5 0 11 -9 14 -21 5 -20 7
-20 31 -4 26 17 34 39 17 49 -5 4 -11 1 -13 -5 -3 -9 -10 -9 -26 0 -16 9 -21
18 -17 32 4 10 3 19 0 19 -10 0 -35 -28 -35 -39 0 -6 -9 -11 -21 -11 -12 0
-19 -5 -17 -12 3 -7 -2 -19 -9 -27 -12 -12 -18 -11 -41 6 -15 11 -28 30 -30
42 -2 13 -8 19 -15 14 -17 -11 -61 -11 -74 0 -9 7 -13 5 -13 -6 0 -17 27 -30
42 -20 7 4 9 -2 6 -15 -7 -25 2 -34 22 -22 20 12 61 -10 55 -29 -4 -14 2 -16
35 -13 37 4 40 2 40 -20 0 -32 -8 -40 -32 -27 -32 17 -158 27 -158 13 0 -15
44 -26 105 -26 34 -1 45 -5 48 -20 3 -11 0 -18 -9 -18 -8 0 -14 -6 -15 -12 0
-7 -4 -3 -9 10 -5 12 -15 22 -22 23 -7 0 -26 2 -42 4 -22 3 -26 1 -17 -8 17
-17 13 -27 -9 -27 -11 0 -20 -7 -20 -15 0 -9 -6 -15 -12 -14 -7 1 -21 -1 -30
-5 -25 -11 -52 -3 -56 17 -3 14 3 17 29 15 30 -3 33 0 36 26 l2 29 -23 -22
-24 -22 -36 31 c-24 22 -41 30 -55 25 -27 -8 -36 12 -11 25 12 7 27 7 38 2 9
-5 23 -7 29 -5 7 3 17 -7 23 -21 5 -14 15 -26 21 -26 8 0 8 4 -1 15 -11 13 -8
15 13 15 33 0 38 11 15 33 -10 9 -18 13 -18 7 0 -12 -47 -13 -54 -2 -3 5 -19
7 -36 4 -24 -3 -29 -1 -25 11 4 9 -1 16 -13 19 -15 4 -18 1 -15 -12 3 -9 -1
-17 -9 -17 -7 0 -20 -4 -29 -7 -18 -8 -23 21 -7 41 7 8 4 11 -11 10 -12 -1
-21 -7 -21 -13 0 -11 -28 -24 -57 -28 -7 0 -13 -5 -14 -11 0 -5 -5 -16 -11
-23 -6 -7 -8 -15 -5 -19 7 -6 -61 -43 -80 -43 -7 0 -13 8 -13 18 0 14 -2 15
-9 2 -6 -8 -7 -18 -5 -22 8 -12 -11 -9 -24 4 -7 7 -13 8 -13 3 -1 -6 -2 -17
-3 -25 -1 -10 -12 -15 -31 -15 -19 0 -34 -7 -41 -19 -8 -13 -13 -15 -18 -7 -4
6 -16 11 -27 11 -14 0 -19 -7 -19 -25 0 -26 -14 -33 -26 -14 -4 8 -9 7 -15 -2
-5 -8 -3 -16 4 -21 16 -10 -37 -21 -62 -13 -12 3 -21 11 -21 16 0 6 9 7 20 4
19 -6 28 9 12 19 -28 17 -71 -24 -75 -72 -1 -18 -7 -22 -38 -22 -25 0 -39 -5
-43 -17 -6 -15 11 -36 24 -29 36 21 276 125 299 130 22 4 55 18 61 25 10 12
61 31 82 31 18 0 19 -2 7 -17 -12 -15 -12 -16 4 -10 20 7 25 -18 5 -26 -8 -4
-7 -6 3 -6 23 -1 44 25 27 33 -11 5 -11 7 0 12 9 4 10 9 2 19 -8 9 -8 15 0 20
5 3 10 4 10 0 0 -3 10 0 22 6 44 23 75 20 109 -12 17 -16 34 -27 37 -24 3 2
11 0 19 -6 7 -6 13 -8 13 -4 0 10 -29 33 -56 45 -12 4 -24 18 -27 29 -6 25 8
28 17 4 5 -12 9 -14 14 -6 5 7 19 9 41 4 27 -5 37 -13 45 -38 6 -18 20 -38 30
-46 10 -8 16 -19 12 -25 -5 -8 1 -11 16 -9 14 1 22 -3 21 -10 -2 -7 3 -13 11
-13 8 0 22 -7 30 -16 15 -14 16 -14 16 5 0 21 17 37 28 27 3 -4 1 -16 -6 -26
-16 -25 -15 -30 3 -30 8 0 15 8 15 17 0 14 3 13 16 -5 8 -12 20 -22 26 -22 6
0 3 9 -6 19 -19 21 -14 41 9 41 8 0 17 5 21 11 5 8 -3 10 -25 7 -38 -6 -66 18
-38 33 9 6 17 20 17 32 1 22 1 22 15 3 10 -13 12 -23 5 -30 -15 -15 -12 -30 4
-17 10 9 15 8 19 -3 4 -9 14 -13 29 -10 20 5 21 4 6 -6 -24 -15 -23 -33 1 -25
13 4 27 -1 39 -13 15 -15 30 -19 61 -16 23 2 47 6 53 10 5 4 14 0 19 -7 12
-19 11 -32 -1 -24 -6 4 -10 -5 -10 -19 0 -30 15 -34 29 -7 11 20 51 36 51 20
0 -5 9 -9 20 -9 22 0 27 16 8 23 -7 2 -9 8 -5 13 5 5 15 0 23 -11 10 -13 11
-21 4 -23 -8 -3 -7 -8 1 -18 13 -16 -4 -44 -27 -44 -8 0 -14 -7 -14 -15 0 -8
-5 -15 -11 -15 -7 0 -5 10 6 26 13 20 14 28 5 39 -10 12 -16 12 -41 0 -36 -19
-53 -19 -70 2 -11 13 -11 17 -1 20 29 10 8 19 -43 19 -45 -1 -55 -4 -55 -18 0
-9 -7 -23 -15 -32 -18 -18 -4 -30 25 -21 10 3 29 1 41 -5 15 -8 19 -9 15 -1
-4 6 -2 11 3 11 14 0 14 -10 -1 -41 -12 -25 -13 -25 -39 -10 -28 16 -55 7 -29
-9 12 -8 11 -10 -6 -10 -15 0 -23 -8 -26 -25 -5 -24 5 -34 16 -16 3 5 21 5 41
1 19 -4 35 -5 35 -1 0 3 14 6 30 6 17 0 30 -3 30 -7 0 -13 28 -9 33 5 3 9 7 9
20 -2 9 -7 14 -17 11 -22 -3 -5 4 -9 15 -9 14 0 19 -5 15 -15 -7 -18 9 -19 36
-3 15 10 27 10 51 1 26 -10 36 -9 65 8 44 24 52 24 29 -1 -18 -20 -17 -20 8
-20 14 0 37 -4 51 -9 18 -7 28 -6 36 4 7 8 16 12 22 9 5 -3 -3 -17 -18 -31
-21 -19 -29 -22 -36 -11 -7 10 -11 10 -21 -4 -12 -15 -24 -16 -102 -8 -49 5
-91 13 -94 18 -3 5 -21 13 -40 17 -23 5 -31 4 -27 -4 5 -7 -1 -11 -14 -11 -13
0 -19 4 -14 12 4 6 3 8 -3 5 -6 -4 -16 0 -23 8 -8 9 -21 13 -36 9 -31 -8 -34
22 -3 31 11 4 18 9 15 12 -3 3 -18 -1 -35 -8 -24 -11 -28 -16 -18 -28 10 -12
9 -14 -6 -8 -10 4 -21 7 -23 7 -2 0 -4 7 -4 15 0 8 -4 15 -10 15 -5 0 -10 -6
-10 -14 0 -27 -50 6 -51 34 -1 14 -3 18 -6 9 -2 -9 -15 -22 -28 -29 -14 -7
-25 -17 -25 -21 0 -11 66 -31 92 -28 33 3 118 -11 156 -27 18 -7 39 -11 47 -8
8 4 15 2 15 -4 0 -5 29 -12 65 -16 36 -4 78 -12 93 -18 15 -7 43 -13 62 -15
19 -2 51 -5 70 -7 19 -2 40 -4 47 -5 6 0 19 -9 29 -18 12 -12 19 -14 21 -6 3
8 12 9 34 1 32 -11 35 -18 17 -36 -9 -9 -7 -12 10 -12 20 0 27 10 23 33 -1 5
11 6 26 3 15 -3 48 -8 73 -11 25 -3 69 -10 98 -16 44 -9 52 -13 47 -29 -3 -10
-1 -21 5 -25 9 -6 14 7 11 28 0 4 8 7 18 7 11 0 23 5 26 10 3 6 1 10 -4 10 -6
0 -11 5 -11 12 0 6 3 8 7 5 3 -4 12 1 19 11 17 24 27 10 14 -22 -12 -34 -6
-46 20 -39 11 3 20 1 20 -5 0 -13 32 -25 39 -14 3 5 23 7 45 4 27 -3 40 -10
43 -23 6 -23 21 -25 29 -4 5 11 11 12 25 5 10 -6 22 -10 26 -9 4 1 17 1 28 0
18 -1 16 -5 -12 -31 -18 -17 -35 -30 -39 -30 -4 0 -12 -6 -18 -14 -22 -28 -88
-56 -108 -45 -16 8 -18 6 -18 -21 0 -25 -6 -33 -30 -44 -17 -7 -28 -15 -25
-18 3 -3 -6 -13 -20 -22 -22 -15 -29 -15 -43 -4 -15 11 -15 11 -4 -3 10 -13
10 -19 -2 -29 -9 -6 -21 -8 -27 -4 -8 5 -10 2 -6 -9 6 -16 -11 -27 -44 -27
-10 0 -19 -6 -19 -14 0 -8 -9 -18 -20 -21 -11 -3 -25 -15 -30 -26 -13 -23 -30
-25 -30 -4 0 8 -4 15 -10 15 -5 0 -10 -4 -10 -10 0 -5 -15 -10 -33 -10 -41 0
-81 -25 -56 -35 8 -3 28 -1 43 5 34 12 46 13 46 1 0 -5 -14 -14 -30 -20 -17
-5 -33 -17 -36 -26 -3 -8 -17 -15 -30 -15 -24 0 -33 15 -13 22 6 2 -9 9 -33
15 -38 10 -41 10 -24 -3 24 -17 15 -29 -12 -15 -23 12 -36 3 -21 -16 9 -10 8
-13 -6 -13 -9 0 -19 9 -22 20 -6 22 -49 28 -55 8 -2 -6 -12 -9 -21 -5 -11 4
-14 12 -10 23 5 13 2 15 -18 9 -13 -4 -27 -12 -30 -17 -4 -6 -13 -2 -20 9 -8
10 -27 24 -44 32 -18 8 -25 15 -17 18 9 3 4 10 -13 19 -36 18 -36 18 -24 -10
6 -13 25 -30 42 -39 l32 -16 -30 0 c-25 -1 -55 12 -85 36 -2 2 2 8 10 13 13 8
12 10 -2 10 -9 0 -24 -7 -33 -16 -15 -15 -15 -14 -9 10 3 15 2 26 -4 26 -5 0
-12 -9 -15 -20 -5 -18 -7 -19 -36 -4 -25 13 -35 13 -46 4 -16 -13 -50 -6 -41
9 4 5 -14 9 -39 9 -24 -1 -51 4 -59 11 -7 6 -18 11 -22 10 -31 -5 -56 2 -51
15 5 12 -1 13 -29 9 -29 -5 -33 -3 -28 11 4 11 1 16 -11 16 -10 0 -15 -5 -12
-13 5 -13 -46 -18 -59 -4 -4 4 -20 7 -36 7 -22 0 -28 5 -28 22 0 17 -3 19 -12
10 -16 -16 -28 -15 -28 3 0 17 -16 20 -25 5 -3 -6 -12 -10 -18 -10 -9 0 -9 2
0 8 10 6 10 12 -2 28 -13 16 -16 17 -25 4 -5 -8 -8 -21 -5 -27 5 -15 -31 -18
-39 -4 -4 5 -24 12 -45 16 -22 4 -45 13 -52 21 -6 8 -21 14 -33 14 -12 0 -27
5 -32 10 -7 7 -19 7 -35 2 -18 -7 -28 -6 -38 5 -10 11 -27 14 -58 10 -38 -4
-41 -3 -26 9 25 19 2 17 -25 -2 -13 -9 -31 -13 -45 -9 -49 14 -76 28 -71 36 7
12 44 11 44 -1 0 -15 37 -12 43 4 8 20 -50 41 -69 25 -7 -6 -22 -8 -33 -4 -11
3 -30 1 -41 -5 -16 -9 -28 -8 -52 4 -35 18 -51 21 -28 6 12 -8 9 -10 -12 -10
-40 0 -34 12 15 34 23 10 50 25 59 33 11 10 27 13 47 8 27 -6 30 -4 24 11 -5
13 -3 16 9 11 9 -3 29 -2 45 3 15 5 20 9 11 9 -10 1 -18 6 -18 12 0 6 9 9 19
6 12 -3 22 1 26 12 6 15 8 14 19 -1 17 -23 51 -24 42 -2 -3 9 -6 17 -6 20 0 2
-7 0 -17 -3 -11 -4 -14 -3 -9 5 4 7 12 12 18 12 5 0 21 9 35 20 26 21 59 28
48 10 -3 -5 8 -16 25 -25 16 -8 30 -23 30 -32 0 -12 3 -14 10 -7 8 8 2 21 -20
44 -33 36 -38 50 -15 50 8 0 15 -7 15 -16 0 -9 6 -14 13 -11 6 2 11 12 9 21
-2 9 1 16 5 15 21 -3 32 2 28 14 -7 17 59 51 85 44 11 -3 17 -1 14 4 -13 21
19 41 55 34 25 -4 32 -3 22 4 -12 7 -6 13 27 26 23 10 42 21 42 25 0 16 48 20
117 8 78 -13 97 -7 70 19 -16 16 -17 16 -17 0 0 -9 -7 -17 -15 -17 -8 0 -14 3
-14 8 1 4 1 20 0 36 -1 25 -3 27 -17 15 -13 -11 -15 -9 -12 16 2 17 -2 30 -11
33 -10 3 -12 -1 -9 -16 5 -19 3 -21 -32 -16 -22 3 -41 1 -45 -5 -3 -6 1 -11 9
-11 9 0 16 -5 16 -11 0 -9 4 -9 14 0 10 8 21 7 45 -5 17 -8 31 -19 31 -23 0
-10 -51 -6 -58 5 -4 5 -20 9 -37 8 -39 -2 -67 5 -60 16 3 4 -3 18 -13 31 l-19
22 -11 -32 c-10 -29 -10 -32 3 -21 8 7 16 10 16 6 1 -3 2 -10 3 -15 0 -5 4
-13 8 -16 9 -9 -35 -45 -55 -45 -8 0 -20 -7 -27 -15 -15 -18 -155 -85 -176
-85 -8 0 -14 -4 -14 -8 0 -4 -16 -14 -36 -21 -20 -7 -52 -24 -71 -37 -20 -13
-44 -24 -55 -24 -10 0 -28 -9 -40 -20 -12 -11 -30 -20 -39 -20 -10 0 -19 -4
-21 -8 -1 -4 -55 -33 -118 -65 -111 -54 -144 -62 -190 -44 -8 3 -51 13 -95 22
-44 9 -93 20 -110 25 -16 5 -64 14 -105 21 -41 6 -89 15 -106 21 -18 5 -54 13
-80 17 -83 14 -405 82 -489 102 -44 11 -120 28 -170 39 -49 10 -110 24 -135
31 -25 6 -50 12 -57 12 -28 1 3 17 99 52 57 21 117 43 133 50 17 7 64 25 105
40 101 36 228 84 275 105 59 26 155 60 169 60 8 0 18 5 21 10 3 5 14 10 24 10
12 0 20 9 24 25 3 17 0 24 -7 20 -6 -3 -19 -8 -28 -11 -10 -4 -18 -13 -18 -20
0 -8 -8 -14 -17 -14 -19 -1 -94 -26 -156 -54 -21 -9 -42 -14 -47 -11 -6 4 -10
2 -10 -2 0 -8 -91 -46 -115 -48 -5 -1 -26 -9 -45 -18 -82 -38 -255 -97 -272
-91 -12 3 -18 0 -18 -10 0 -9 -25 -22 -72 -37 -40 -13 -82 -28 -93 -35 -16
-11 -32 -9 -90 7 -38 10 -88 20 -110 22 -22 1 -45 6 -51 10 -11 6 -115 30
-259 58 -27 5 -57 12 -65 16 -8 3 -24 7 -35 8 -11 1 -40 7 -65 13 -25 6 -81
18 -125 27 -44 9 -87 19 -95 23 -8 3 -55 13 -105 23 -49 9 -118 22 -152 29
-35 7 -63 16 -63 20 0 5 -15 8 -32 8 -18 -1 -53 2 -78 6 l-45 8 23 -19 24 -20
-46 -17 c-40 -15 -54 -16 -96 -6 -28 7 -50 14 -50 16 0 2 24 10 53 19 68 20
84 30 62 39 -10 3 -46 -5 -80 -19 -35 -14 -73 -25 -84 -25 -37 0 -121 22 -116
30 3 4 27 13 55 20 27 7 50 16 50 21 0 12 -6 11 -74 -11 -64 -21 -151 -27
-161 -10 -4 6 -15 8 -26 5 -10 -4 -19 -2 -19 3 0 5 10 12 22 15 12 4 19 9 16
13 -4 3 -22 1 -39 -5 -25 -8 -48 -8 -91 0 -66 13 -71 29 -12 42 40 8 70 27 43
27 -8 0 -19 -4 -25 -8 -20 -19 -124 -33 -185 -26 -52 6 -59 9 -46 19 13 10 5
12 -46 13 -107 3 -117 4 -117 14 0 5 14 14 31 20 47 16 30 18 -41 3 -40 -9
-69 -10 -74 -4 -14 13 -50 11 -64 -3 -9 -9 -12 -9 -12 -1 0 7 5 15 10 18 6 3
10 10 10 16 0 11 -40 12 -59 0 -17 -11 -81 8 -81 24 0 6 23 17 51 24 36 9 48
16 40 24 -7 7 -18 7 -36 -1 -38 -18 -65 -15 -65 6 0 13 -15 23 -56 36 -51 16
-54 19 -37 31 23 18 40 19 46 3 2 -7 8 -9 13 -5 8 8 -38 57 -54 57 -6 0 -12
-7 -16 -15 -3 -8 -13 -15 -23 -15 -16 0 -16 1 1 13 16 12 16 14 2 26 -13 11
-22 11 -41 3 -15 -7 -25 -8 -25 -2 0 6 -8 10 -17 10 -13 0 -9 6 12 18 17 10
45 19 63 19 32 0 43 -11 20 -20 -21 -9 10 -25 37 -19 31 6 41 33 18 50 -14 10
-15 14 -4 21 11 7 10 24 -4 105 -11 62 -22 96 -30 96 -7 0 -41 -9 -76 -19 -80
-24 -317 -75 -344 -74 -11 1 -41 -3 -68 -9 -44 -9 -89 -13 -205 -17 -24 0 -41
-5 -37 -10 7 -12 -31 -25 -45 -16 -6 4 -8 10 -5 15 8 12 -27 22 -39 10 -5 -5
-28 -11 -50 -11 -39 -2 -39 -2 14 -11 30 -5 63 -13 72 -19 9 -5 30 -6 47 -3
23 5 32 2 40 -15 7 -12 16 -21 22 -21 6 0 8 4 4 9 -3 5 -1 12 5 16 6 3 13 -1
16 -9 3 -9 12 -16 19 -16 8 0 29 -9 47 -20 29 -17 37 -18 59 -6 13 7 29 11 35
9 7 -2 14 6 17 18 5 18 9 20 21 10 8 -7 12 -19 9 -27 -5 -13 8 -19 31 -15 5 1
4 -5 -3 -13 -14 -16 -91 -20 -91 -4 0 6 -9 8 -21 5 -11 -3 -46 1 -77 8 -31 8
-91 20 -132 28 -41 9 -115 25 -165 36 -196 46 -221 51 -247 51 -15 0 -30 5
-33 10 -3 6 -28 10 -55 10 -27 0 -52 5 -55 10 -3 6 -23 10 -44 10 -21 0 -55 7
-76 16 -21 8 -52 13 -71 11 -23 -3 -34 0 -39 10 -4 11 -15 14 -38 10 -20 -3
-40 0 -52 9 -26 19 -42 18 -124 -10 -39 -13 -73 -20 -76 -16 -3 4 -14 6 -25 3
-11 -3 -20 -1 -20 5 0 5 -19 12 -41 15 -23 3 -45 9 -48 14 -3 4 -25 8 -49 9
-25 0 -47 6 -52 13 -5 9 -18 12 -37 8 -18 -3 -41 0 -57 9 -16 8 -46 14 -68 14
l-39 0 2 -128 c2 -70 0 -133 -5 -140 -5 -8 12 -20 50 -37 31 -14 63 -25 71
-25 10 0 12 -6 8 -20 -5 -15 -2 -20 14 -20 11 0 24 7 29 16 8 14 12 14 31 -7
11 -12 21 -28 21 -35 0 -8 12 -12 33 -11 17 1 42 -2 54 -6 18 -7 22 -5 17 7
-3 9 -2 16 4 16 5 0 12 -8 14 -17 4 -14 15 -18 56 -17 28 0 49 -3 46 -8 -3 -4
-14 -8 -24 -8 -10 0 -22 -5 -25 -10 -3 -6 -18 -7 -33 -4 -22 5 -25 4 -15 -6
10 -11 22 -11 67 0 62 15 86 9 86 -19 0 -10 7 -22 16 -25 23 -9 30 0 15 18
-10 11 -8 19 6 35 22 26 33 27 33 1 0 -11 4 -20 10 -20 15 0 0 -28 -18 -33
-10 -3 -4 -5 11 -6 16 0 26 3 23 8 -3 5 1 12 10 15 22 8 46 8 41 -1 -3 -5 -2
-16 2 -26 6 -17 8 -16 29 3 12 11 22 16 22 11 0 -6 10 -21 23 -35 22 -23 25
-24 51 -11 35 18 37 18 30 1 -3 -7 2 -16 10 -19 10 -4 13 -1 9 9 -3 8 1 14 11
14 9 0 16 -4 16 -10 0 -5 11 -10 25 -10 14 0 25 5 25 12 0 9 3 9 11 1 16 -16
1 -36 -22 -30 -26 7 -34 -10 -11 -22 13 -7 31 -7 52 -1 26 7 31 7 26 -5 -3 -8
0 -15 7 -15 7 0 13 -9 13 -20 0 -27 -25 -26 -35 2 -6 16 -9 18 -13 6 -4 -8 -3
-19 0 -25 10 -14 62 -26 62 -14 0 6 6 9 13 7 36 -12 77 -15 72 -6 -7 11 15 13
39 4 9 -3 12 -12 9 -22 -5 -13 -3 -14 7 -5 8 8 19 8 31 2 11 -5 27 -13 38 -18
13 -7 24 -4 39 12 12 11 24 18 27 15 3 -3 -2 -13 -11 -22 -15 -16 -15 -18 1
-30 13 -9 15 -15 7 -20 -7 -4 -12 -13 -12 -20 0 -17 47 -39 55 -26 4 6 0 10
-7 10 -10 0 -9 3 2 9 8 6 18 7 23 4 5 -3 13 1 18 8 8 12 11 11 20 -4 6 -9 14
-15 20 -12 5 4 9 1 9 -4 0 -6 -11 -11 -24 -11 -13 0 -29 -7 -36 -15 -8 -9 -9
-15 -2 -15 6 0 14 4 17 10 3 6 11 10 16 10 5 0 1 -10 -11 -22 -18 -20 -23 -21
-55 -9 -31 11 -37 10 -65 -10 -16 -13 -30 -25 -30 -27 0 -2 10 3 23 12 36 27
49 30 61 15 11 -13 50 -39 60 -39 3 0 13 16 22 35 16 35 28 43 39 25 3 -5 12
-7 20 -3 8 3 15 0 15 -6 0 -6 10 -11 21 -11 18 0 19 -2 9 -15 -7 -8 -17 -11
-24 -7 -6 4 -20 7 -32 7 -16 1 -20 -4 -16 -19 4 -16 1 -18 -21 -14 -16 3 -31
0 -38 -8 -9 -11 -7 -14 7 -15 11 0 27 -2 37 -4 10 -2 21 3 24 11 3 8 12 14 20
14 9 0 13 -6 9 -15 -4 -12 2 -15 27 -14 30 1 31 1 7 8 l-25 8 25 4 c13 2 30
15 37 29 8 16 13 19 13 9 0 -18 47 -32 56 -17 4 5 17 7 29 4 13 -3 27 -2 30 4
3 5 1 10 -6 10 -6 0 0 11 15 25 31 29 36 30 36 10 0 -7 -8 -19 -17 -24 -19
-11 -19 -10 27 -15 8 0 16 -9 18 -18 3 -13 -3 -18 -22 -18 -14 0 -28 -4 -31
-10 -3 -5 -13 -10 -21 -10 -9 0 -12 5 -8 11 4 8 -1 9 -17 4 -33 -10 -36 -15
-19 -26 11 -7 7 -9 -15 -7 -17 1 -36 -2 -43 -6 -7 -4 -26 -12 -43 -16 -28 -8
-31 -7 -26 10 5 18 0 20 -41 19 -35 -2 -39 -3 -17 -6 31 -5 48 -21 38 -36 -3
-5 -10 -3 -14 4 -8 12 -11 11 -22 -1 -22 -26 -61 -44 -65 -31 -3 8 -8 7 -16
-5 -7 -9 -23 -18 -37 -20 -35 -5 -113 -28 -119 -34 -3 -4 -31 -12 -62 -19 -31
-7 -74 -21 -95 -32 -21 -11 -29 -18 -18 -15 11 3 34 8 50 11 17 4 68 18 115
32 47 13 101 28 120 33 19 5 67 18 105 30 39 11 88 25 110 31 51 14 114 35
139 45 13 5 17 4 12 -4 -3 -6 -2 -13 4 -17 5 -3 10 1 10 9 0 9 12 18 28 22 15
3 38 9 52 14 21 7 120 30 198 46 19 4 22 0 22 -28 0 -23 3 -29 9 -19 5 8 14
10 21 6 7 -4 16 -2 21 6 7 11 10 9 15 -8 4 -13 10 -23 15 -23 5 0 9 -5 9 -11
0 -5 -6 -7 -12 -4 -7 4 -4 -1 7 -10 19 -15 20 -15 30 17 10 32 11 33 43 23 19
-5 31 -14 28 -22 -3 -7 -1 -15 4 -18 9 -6 14 10 13 42 0 6 14 11 33 11 19 0
31 -4 28 -9 -3 -5 3 -9 13 -9 13 0 9 -5 -11 -15 -16 -9 -36 -13 -43 -11 -7 3
-13 1 -13 -4 0 -6 5 -10 11 -10 5 0 7 -4 4 -10 -12 -19 20 -10 34 9 8 11 21
17 28 14 9 -4 11 -8 5 -12 -6 -3 -14 -19 -17 -34 -6 -20 -4 -27 8 -27 8 0 17
-7 21 -15 7 -19 40 -20 55 -2 13 16 5 27 -20 27 -18 0 -33 26 -20 35 17 10 68
-7 67 -22 0 -9 5 -18 12 -20 7 -3 12 4 12 16 0 14 6 21 19 21 11 0 21 5 23 11
2 7 9 5 17 -5 12 -14 10 -16 -12 -16 -14 0 -27 -7 -31 -15 -4 -10 1 -15 14
-15 11 0 20 -4 20 -10 0 -5 5 -10 12 -10 6 0 9 3 5 6 -3 4 0 13 8 20 13 13 68
13 158 0 38 -6 47 -16 14 -16 -19 0 -27 -5 -27 -17 0 -10 -3 -28 -6 -40 -8
-29 22 -32 42 -5 10 14 15 15 25 5 18 -18 -2 -37 -39 -38 -36 0 -30 -18 10
-28 23 -6 28 -11 18 -17 -7 -4 -18 -6 -25 -4 -6 3 -25 -2 -41 -11 -16 -8 -35
-15 -42 -15 -8 0 -26 -7 -40 -15 -31 -17 -100 -42 -157 -57 -22 -5 -54 -16
-72 -24 -17 -8 -38 -14 -46 -14 -9 0 -18 -4 -21 -9 -6 -9 -64 -25 -80 -22 -4
1 -14 -4 -22 -10 -11 -9 -17 -9 -28 0 -9 7 -17 8 -20 2 -3 -5 -1 -11 5 -13 11
-4 -109 -48 -129 -48 -6 0 -14 9 -17 20 -3 11 -13 20 -21 20 -13 0 -13 -2 0
-16 22 -22 20 -33 -8 -44 -24 -9 -59 -3 -141 25 -22 7 -121 39 -220 70 -99 31
-202 65 -229 76 -27 10 -55 19 -63 19 -7 0 -39 9 -71 20 -31 12 -75 25 -98 30
-23 5 -63 19 -90 31 -27 12 -55 21 -61 20 -7 -1 -25 4 -40 12 -16 8 -50 20
-78 26 -27 7 -55 17 -62 23 -7 6 -35 15 -61 19 -26 5 -69 18 -97 28 -27 11
-79 27 -115 36 -36 9 -72 20 -80 24 -8 4 -42 16 -75 25 -33 10 -70 22 -83 27
-30 12 -62 12 -62 -1 0 -5 -17 -12 -37 -16 -21 -3 -62 -12 -92 -19 -37 -10
-61 -11 -79 -4 -24 9 -25 10 -6 23 25 17 132 37 170 32 16 -2 22 -1 14 1 -8 3
-17 8 -20 12 -5 7 -178 61 -194 61 -4 0 -5 -4 -2 -9 7 -11 -47 -31 -83 -31
-15 0 -36 -7 -48 -15 -19 -13 -25 -13 -60 2 l-38 16 50 14 c28 7 64 18 80 23
17 5 41 7 54 3 17 -4 22 -3 17 5 -4 7 -16 12 -27 12 -10 0 -27 4 -37 9 -21 12
-145 51 -158 51 -5 0 0 -7 10 -15 21 -16 19 -17 -39 -30 -72 -18 -200 -9 -133
8 12 4 19 9 16 12 -3 3 -26 1 -52 -6 -60 -15 -100 -5 -93 22 5 18 2 20 -20 14
-32 -8 -91 14 -71 26 8 5 -12 9 -49 9 -64 0 -73 5 -50 29 10 11 6 12 -24 7
-38 -7 -99 12 -79 24 5 3 -15 6 -44 6 -58 -1 -79 9 -56 25 11 8 5 9 -22 4 -40
-6 -83 9 -72 26 4 7 -6 10 -27 8 -54 -3 -69 0 -69 16 0 11 -12 15 -45 15 -42
0 -60 13 -32 23 6 2 -15 4 -47 3 -39 -1 -61 3 -63 12 -3 6 -17 12 -31 12 -15
0 -34 5 -42 10 -13 9 -13 11 0 21 11 8 3 9 -32 4 -38 -5 -48 -3 -56 11 -7 13
-17 15 -39 11 -22 -4 -36 -1 -51 14 -12 10 -35 19 -51 19 -16 0 -33 5 -36 10
-3 6 -20 10 -37 10 -21 0 -31 6 -35 19 -4 16 -11 18 -37 14 -21 -3 -38 0 -47
10 -25 25 -109 11 -93 -15 4 -6 5 -45 4 -87 -2 -42 -3 -87 -2 -101 0 -14 -4
-31 -10 -38 -8 -9 -6 -17 5 -30 9 -9 16 -21 16 -27 1 -5 16 -10 34 -10 30 0
32 -2 32 -35 0 -29 -4 -36 -25 -42 -14 -4 3 -5 37 -3 35 3 62 1 62 -3 -1 -4
-1 -17 0 -30 1 -21 2 -22 17 -8 19 20 38 21 31 2 -6 -15 12 -26 44 -26 10 0
19 -4 19 -10 0 -5 11 -10 24 -10 28 0 43 -16 24 -23 -8 -3 -6 -6 4 -6 10 -1
28 9 40 22 l23 22 3 -32 c3 -30 7 -34 43 -39 41 -7 46 -13 27 -32 -9 -9 -7
-12 11 -12 20 0 22 4 17 25 -5 18 -2 25 9 25 8 0 15 -9 15 -20 0 -19 26 -32
60 -28 8 0 29 0 45 -1 l30 -3 -30 -10 c-16 -5 -37 -12 -45 -15 -8 -3 -19 -7
-25 -8 -5 0 -17 -4 -25 -7 -8 -4 -28 -11 -45 -16 -47 -16 0 -14 70 3 70 17
135 19 135 5 0 -5 9 -10 20 -10 11 0 20 -4 20 -10 0 -14 27 -12 34 3 4 8 10 5
22 -10 9 -13 25 -23 35 -23 10 0 21 -4 24 -10 3 -6 20 -10 36 -10 26 0 29 -3
24 -21 -5 -16 -3 -20 6 -17 8 3 13 15 12 27 -3 27 13 27 28 0 7 -13 17 -19 29
-16 13 3 17 0 13 -9 -3 -9 2 -14 13 -14 16 0 17 -2 4 -10 -9 -6 -10 -10 -3
-10 6 0 15 5 18 10 3 6 11 10 17 10 7 0 6 -5 -2 -14 -10 -13 -7 -13 19 -3 17
6 26 14 20 18 -11 7 12 19 37 19 18 0 18 -39 0 -46 -15 -6 -10 -44 6 -44 5 0
6 -5 2 -11 -4 -7 1 -9 12 -7 11 2 18 10 16 16 -2 14 17 16 36 3 10 -6 9 -10
-7 -14 -12 -3 -20 -11 -19 -19 2 -7 -5 -12 -15 -12 -9 1 -17 -2 -17 -7 0 -5
-16 -9 -35 -9 -19 0 -35 -4 -35 -10 0 -5 -6 -10 -14 -10 -8 0 -17 -4 -20 -8
-8 -13 135 7 171 23 38 18 44 19 41 3 -2 -7 15 -12 49 -12 35 -1 53 -5 53 -13
0 -18 35 -16 54 2 16 17 30 20 21 6 -3 -5 4 -12 15 -16 11 -3 20 -15 20 -26 0
-20 26 -27 32 -8 3 9 9 9 24 1 12 -6 26 -7 34 -2 9 5 19 5 27 -2 7 -6 22 -8
34 -5 16 4 18 3 9 -8 -9 -11 -5 -18 15 -31 23 -15 28 -15 36 -3 12 20 11 2 -2
-23 -16 -29 -4 -33 30 -8 17 12 31 18 31 14 0 -3 7 -1 15 6 9 7 15 8 15 2 0
-5 -7 -13 -17 -16 -14 -6 -14 -9 5 -27 12 -10 36 -22 53 -26 18 -3 26 -9 19
-13 -7 -4 5 -7 26 -6 22 0 42 6 46 11 4 6 8 2 8 -7 0 -21 16 -24 23 -5 2 6 8
8 13 4 4 -4 3 -16 -4 -27 -9 -14 -9 -19 1 -23 6 -2 -31 -14 -83 -27 -52 -12
-99 -25 -105 -29 -20 -11 -110 -40 -127 -41 -10 0 -18 -4 -18 -10 0 -14 27
-12 75 5 22 8 48 15 58 15 10 0 53 11 95 24 42 13 97 29 122 37 25 7 50 14 55
16 6 1 24 6 40 9 30 7 30 7 12 -14 -13 -14 -15 -22 -7 -27 7 -4 16 -2 20 5 5
8 13 5 26 -13 11 -13 34 -32 52 -41 18 -9 30 -21 28 -25 -3 -5 3 -16 14 -26
11 -10 20 -26 20 -37 0 -10 7 -18 15 -18 8 0 15 6 15 14 0 8 -7 16 -15 20 -24
9 -19 46 6 46 15 0 19 5 15 15 -3 8 -1 15 5 15 6 0 13 -9 16 -20 7 -25 15 -25
31 0 7 11 19 20 27 20 19 0 19 -16 0 -24 -8 -3 -15 -10 -15 -16 0 -6 5 -8 10
-5 11 7 40 -18 40 -34 0 -14 17 -14 26 0 3 6 0 15 -7 20 -7 4 -10 12 -5 16 14
14 36 -28 26 -48 -8 -13 -6 -19 8 -22 14 -4 14 -6 -5 -12 -40 -13 -20 -40 37
-52 28 -5 32 -4 27 10 -5 13 -1 14 26 6 18 -5 32 -9 33 -9 1 0 4 9 7 20 5 21
-16 29 -28 10 -4 -6 -11 -7 -17 -4 -6 4 -5 10 3 15 11 7 10 9 -3 9 -10 0 -18
5 -18 10 0 6 -8 10 -17 10 -9 0 -13 3 -10 6 4 4 20 1 36 -6 26 -10 33 -10 47
4 13 13 19 14 31 5 10 -9 11 -14 2 -19 -8 -6 -8 -9 2 -12 12 -4 12 -7 0 -21
-12 -15 -11 -17 5 -17 11 0 15 -4 9 -8 -16 -12 -16 -32 0 -26 8 4 15 9 15 13
0 10 69 45 76 38 3 -3 -10 -16 -30 -29 -37 -24 -45 -41 -24 -54 7 -4 18 2 26
14 17 25 58 31 48 7 -3 -8 -1 -15 4 -15 6 0 10 6 10 13 0 9 2 9 8 -1 5 -7 16
-10 25 -6 10 3 17 1 17 -5 0 -6 -3 -11 -7 -12 -27 -2 -57 -11 -76 -20 -20 -11
-20 -12 -2 -25 10 -8 28 -14 39 -15 12 0 17 -2 11 -4 -5 -1 -30 -8 -55 -15
-25 -7 -61 -19 -80 -27 -80 -33 -251 -91 -303 -104 -21 -5 -45 -13 -55 -19 -9
-5 -69 -26 -132 -46 -63 -20 -131 -43 -150 -50 l-35 -14 40 6 c39 6 112 27
150 44 11 5 54 18 95 31 41 12 79 25 84 30 6 5 25 9 42 9 18 0 35 4 39 9 3 5
20 13 37 17 18 3 39 10 48 15 8 4 49 18 90 30 41 12 100 30 130 40 53 18 55
18 74 0 18 -19 18 -19 -4 -31 -25 -13 -42 -4 -20 11 12 9 12 10 -3 5 -10 -3
-26 -6 -34 -6 -23 0 2 -27 32 -34 34 -9 40 -8 40 7 0 6 7 13 15 13 29 3 59 16
63 28 3 8 17 11 36 8 24 -3 31 -9 31 -27 0 -18 -4 -22 -20 -18 -14 4 -20 0
-20 -11 0 -23 -17 -20 -25 4 -3 11 -10 20 -15 20 -16 0 -22 -21 -10 -35 9 -10
7 -14 -7 -18 -11 -3 -8 -5 10 -6 16 0 37 -6 49 -12 11 -6 22 -8 25 -5 3 3 -5
10 -18 15 l-24 10 25 2 c14 1 31 2 38 2 9 -1 12 6 9 18 -6 24 -2 24 22 0 18
-18 18 -20 3 -24 -14 -4 -14 -5 2 -6 10 0 25 7 33 16 8 10 12 12 8 6 -4 -8 0
-13 9 -13 9 0 16 4 16 9 0 19 58 17 81 -2 l24 -20 -27 7 c-24 5 -28 3 -28 -16
0 -18 -2 -20 -9 -8 -6 8 -7 19 -5 25 3 5 -1 2 -9 -7 -16 -20 -47 -24 -47 -7 0
5 -5 7 -10 4 -6 -4 -7 -11 -4 -17 5 -7 -2 -9 -22 -4 -16 4 -32 13 -36 19 -4 6
-10 8 -13 5 -4 -4 2 -17 14 -29 15 -16 18 -25 9 -30 -7 -4 3 -9 23 -11 32 -3
34 -5 34 -40 1 -21 -3 -38 -7 -38 -4 0 -8 -8 -8 -18 0 -15 9 -19 42 -20 33 -2
39 1 30 10 -13 13 -16 29 -4 27 21 -3 52 16 52 32 0 10 5 21 10 24 6 3 10 1
10 -5 0 -6 12 -15 26 -20 29 -11 54 5 46 29 -3 10 0 12 12 8 10 -4 20 -7 22
-7 2 0 4 -6 4 -14 0 -7 -10 -17 -22 -21 -20 -6 -21 -8 -5 -12 10 -3 16 -11 13
-18 -8 -21 15 -33 67 -34 34 0 47 3 44 12 -2 7 -18 11 -36 9 -17 -1 -31 2 -31
8 0 5 11 10 25 10 14 0 25 5 25 10 0 6 5 10 10 10 6 0 10 -6 10 -14 0 -9 15
-15 45 -18 31 -2 45 1 45 9 0 7 5 13 11 13 21 0 3 -34 -21 -41 -19 -5 -13 -7
23 -8 27 -1 46 3 43 8 -3 5 6 8 19 8 14 0 28 -3 31 -8 3 -5 25 -9 50 -9 28 0
43 4 39 10 -3 6 3 10 14 10 10 0 21 -6 23 -12 4 -10 10 -10 31 -1 16 8 29 9
32 3 10 -16 25 -11 19 5 -4 10 0 15 11 15 11 0 15 -5 11 -15 -5 -13 136 -15
1229 -15 l1235 0 0 23 c0 17 -2 19 -9 8 -8 -12 -14 -13 -36 -3 -39 18 -23 29
37 25 128 -8 148 -7 148 11 0 16 50 10 63 -8 6 -8 10 -7 14 2 8 20 23 14 23
-9 0 -15 -5 -19 -15 -15 -8 3 -29 0 -46 -6 -20 -7 -33 -7 -38 -1 -3 6 -15 7
-25 3 -32 -11 -2 -22 66 -25 51 -1 61 1 65 16 3 9 15 20 26 24 22 7 22 7 -2
14 -24 6 -42 31 -23 31 6 0 12 -5 14 -11 6 -17 48 -1 48 18 0 11 -7 14 -25 11
-17 -4 -25 -1 -25 8 0 9 -12 14 -34 14 -29 0 -33 -3 -29 -20 6 -24 -3 -26 -25
-4 -14 15 -14 17 4 27 10 6 32 10 48 8 17 -2 26 1 22 7 -3 6 -2 13 4 17 5 3
10 0 10 -8 0 -20 25 -29 57 -20 22 5 25 3 20 -11 -4 -10 -1 -19 8 -22 22 -9
18 -19 -10 -34 -17 -9 -25 -21 -23 -34 4 -27 44 -29 41 -3 -1 17 1 17 21 -2
29 -28 38 -26 26 4 -6 16 -6 26 1 31 14 9 18 3 21 -34 l2 -32 86 0 c88 0 137
14 93 26 -33 9 -29 28 3 20 21 -6 25 -4 21 8 -5 11 0 16 14 16 11 0 18 4 15 9
-3 5 1 12 10 15 45 17 46 -11 1 -39 -44 -28 -41 -48 7 -53 61 -6 107 6 104 26
-2 11 5 18 20 20 25 4 27 -1 12 -29 -10 -17 -7 -19 25 -19 20 0 34 4 31 9 -3
5 3 11 14 14 12 3 20 14 20 25 0 11 7 22 15 26 8 3 15 12 15 20 0 20 27 28 34
10 5 -12 10 -13 27 -3 22 11 38 0 39 -28 0 -8 7 -10 17 -6 17 7 17 6 1 -18 -9
-14 -13 -30 -10 -35 9 -13 102 -16 102 -4 0 6 7 10 15 10 8 0 15 5 15 10 0 6
-7 10 -15 10 -8 0 -15 6 -15 14 0 8 -6 16 -12 19 -7 2 -9 8 -5 13 5 5 14 1 21
-9 16 -21 26 -22 26 -2 0 8 7 15 15 15 8 0 15 5 15 10 0 6 14 10 30 10 17 0
31 -4 31 -10 1 -5 2 -18 2 -27 1 -10 5 -21 10 -24 6 -4 0 -10 -12 -14 -42 -13
-16 -35 42 -35 30 1 31 2 13 15 -20 15 -14 35 11 35 9 0 13 -6 9 -15 -3 -8 0
-14 7 -12 7 1 11 -3 10 -10 -2 -10 546 -12 2546 -13 l2548 0 15 31 c14 28 16
29 32 14 9 -9 16 -22 15 -28 0 -9 -2 -8 -6 1 -2 6 -11 12 -19 12 -8 0 -11 -6
-8 -15 5 -13 36 -15 196 -15 123 0 187 3 183 10 -3 5 1 10 9 10 9 0 16 -5 16
-10 0 -7 61 -10 175 -10 102 1 173 5 170 11 -4 5 7 6 25 3 23 -5 30 -3 30 9 0
9 -8 17 -17 20 -15 3 -14 6 7 15 14 6 19 11 12 11 -7 1 -30 13 -52 27 -22 15
-43 25 -45 22 -12 -12 10 -39 39 -47 22 -7 25 -10 11 -11 -85 -8 -105 -7 -115
5 -10 12 -5 13 24 8 28 -4 36 -2 36 10 0 8 -7 17 -15 21 -9 3 -15 0 -15 -10 0
-21 -24 -12 -28 11 -3 11 0 15 8 10 7 -4 13 1 17 13 4 18 9 19 41 10 20 -6 41
-17 48 -26 6 -8 16 -12 22 -8 6 3 16 -2 22 -11 8 -13 13 -14 16 -5 3 6 12 12
20 12 8 0 14 6 14 13 0 14 -57 38 -105 44 -48 6 -59 8 -72 16 -6 4 -18 4 -27
1 -9 -3 -16 -1 -16 5 0 6 12 11 27 11 21 0 24 3 15 12 -20 20 -14 28 23 28 38
0 46 -13 18 -29 -16 -8 -15 -11 10 -20 36 -14 74 -14 82 -1 3 6 -3 10 -13 10
-11 0 -22 7 -26 15 -3 9 0 15 8 15 8 0 22 3 32 7 13 5 16 3 11 -10 -9 -24 9
-67 28 -67 8 0 15 -4 15 -10 0 -14 37 -13 42 1 3 8 18 9 46 4 33 -5 39 -9 29
-20 -8 -8 -19 -10 -35 -4 -17 7 -27 4 -42 -11 -11 -11 -28 -20 -37 -21 -15 0
-14 -2 3 -9 16 -6 21 -15 18 -37 -2 -15 -2 -23 1 -17 6 12 45 4 87 -17 10 -5
32 -9 50 -8 32 0 32 0 8 10 -36 15 -70 49 -70 73 0 19 0 19 14 1 13 -18 16
-18 42 -5 21 12 28 12 31 3 3 -7 12 -13 20 -13 14 0 13 3 -2 20 -14 16 -26 19
-47 15 -17 -4 -28 -2 -28 4 0 6 9 11 20 11 11 0 20 5 20 10 0 6 -5 10 -11 10
-6 0 -9 8 -7 18 4 13 -1 18 -16 17 -12 0 -27 -4 -35 -9 -9 -6 -18 -4 -25 6 -6
8 -19 17 -28 21 -10 3 -18 11 -18 17 0 13 17 13 25 0 9 -15 42 -12 48 4 3 8 0
20 -8 26 -10 8 -16 7 -23 -6 -9 -15 -13 -16 -26 -5 -30 25 -19 40 27 36 34 -2
43 -7 45 -24 3 -20 37 -51 55 -51 5 0 6 9 2 20 -5 15 -3 18 9 14 20 -8 21 17
4 47 -10 17 -10 23 0 26 18 7 15 23 -5 24 -12 0 -13 2 -5 6 7 3 19 -1 27 -7 9
-7 26 -10 42 -6 18 4 23 3 15 -2 -12 -8 -11 -12 1 -23 13 -12 13 -16 2 -29 -7
-8 -17 -28 -21 -45 -7 -27 -6 -29 9 -17 9 8 20 11 26 8 5 -3 7 3 4 14 -4 15 0
20 14 20 29 0 35 11 15 26 -12 10 -13 13 -3 14 7 0 11 6 8 14 -4 9 1 17 11 19
10 3 5 5 -10 6 -16 0 -28 6 -28 11 0 15 33 26 38 12 2 -6 9 -9 17 -6 8 4 15
-3 17 -18 2 -15 9 -22 19 -20 9 1 19 -4 22 -13 4 -8 13 -12 22 -9 10 4 15 0
15 -10 0 -10 -8 -16 -22 -16 -20 0 -20 -1 -4 -13 17 -13 13 -47 -6 -47 -5 0
-6 4 -3 10 3 6 -5 10 -19 10 -13 0 -26 4 -28 9 -1 4 -12 0 -22 -10 -19 -18
-19 -19 12 -25 28 -6 30 -9 21 -27 -8 -14 -13 -16 -19 -7 -4 7 -13 9 -20 5 -7
-4 -15 -2 -19 4 -9 15 -41 3 -41 -15 0 -7 -8 -18 -17 -23 -12 -7 -13 -10 -4
-11 8 0 11 -6 7 -15 -3 -9 1 -18 9 -21 12 -5 11 -11 -6 -36 -12 -17 -27 -27
-35 -24 -8 3 -14 1 -14 -4 0 -6 16 -10 35 -10 24 0 35 5 35 14 0 19 17 29 32
20 7 -5 5 -11 -7 -21 -17 -12 -15 -13 18 -13 37 0 44 10 31 44 -4 10 -14 13
-33 10 -21 -5 -27 -2 -27 13 -1 10 -5 26 -9 37 -8 18 -7 18 18 1 14 -9 31 -14
37 -10 5 3 10 1 10 -4 0 -6 -7 -11 -15 -11 -8 0 -15 -4 -15 -10 0 -6 9 -6 26
0 35 14 44 13 44 -6 0 -9 6 -14 13 -11 6 2 12 8 12 13 0 5 4 15 9 22 4 7 4 18
-1 25 -5 7 -10 22 -11 34 -1 19 4 21 28 18 16 -2 34 -6 39 -10 6 -3 27 -6 47
-7 31 -1 34 -3 20 -13 -9 -7 -16 -22 -16 -34 0 -11 -9 -38 -20 -59 l-20 -37
26 -3 c15 -2 30 1 33 6 8 12 81 13 81 1 0 -5 130 -9 300 -8 165 0 298 3 296 7
-2 4 3 13 11 21 13 12 14 11 9 -7 l-7 -22 238 2 c155 0 240 4 245 11 4 7 12 6
24 -4 11 -9 15 -9 10 -1 -4 7 -1 12 8 12 9 0 16 -4 16 -8 0 -5 32 -10 70 -10
41 -1 69 2 65 8 -3 5 -1 11 5 15 5 3 10 -1 10 -9 0 -18 21 -21 36 -6 8 8 19 8
38 0 58 -22 57 -25 50 158 -3 92 -6 174 -5 182 11 189 19 1210 11 1485 l-5
170 -55 2 c-62 2 -351 31 -420 41 -44 7 -45 8 -53 52 -5 25 -10 684 -11 1465
-2 781 -4 1563 -5 1738 l-1 317 -247 -2 -248 -3 -12 -65 c-7 -36 -12 -84 -13
-108 0 -36 4 -44 25 -52 21 -8 24 -14 19 -35 -5 -21 -3 -25 15 -25 25 0 55
-52 48 -86 -4 -21 0 -23 42 -26 39 -3 46 -6 49 -26 4 -23 -35 -81 -55 -81 -6
-1 -14 7 -17 17 -4 14 -5 14 -4 -3 1 -40 -3 -44 -39 -50 -21 -3 -50 -13 -65
-21 -14 -8 -34 -11 -44 -7 -13 5 -16 3 -11 -10 9 -24 -16 -44 -67 -51 -24 -4
-55 -16 -69 -26 -13 -10 -37 -22 -53 -26 -46 -11 -64 -23 -58 -39 4 -8 13 -15
22 -15 13 0 12 -3 -4 -14 -24 -18 -20 -21 52 -49 51 -20 59 -27 59 -49 1 -17
-3 -24 -12 -21 -9 4 -19 -9 -29 -33 -12 -32 -20 -39 -42 -40 -15 0 -55 -3 -89
-6 -33 -3 -65 -2 -70 3 -6 6 -20 6 -37 -1 -15 -5 -31 -8 -36 -5 -7 5 -116 16
-157 17 -13 0 -23 3 -23 7 0 6 -35 8 -216 11 -50 1 -97 5 -103 9 -6 4 -13 58
-16 137 -10 266 -15 434 -15 602 l0 172 -188 0 -188 0 0 -1382 c1 -1334 -4
-1664 -27 -1718 -7 -16 -12 -55 -23 -172 -4 -43 -12 -82 -18 -87 -7 -6 -41 -6
-91 0 -44 5 -116 14 -160 18 -44 5 -87 12 -95 15 -15 6 -174 20 -405 36 -170
11 -535 47 -622 61 -37 5 -95 13 -128 15 -81 7 -87 14 -80 89 l6 62 -83 11
c-46 7 -193 21 -328 33 -135 11 -301 26 -370 34 -69 7 -186 19 -260 25 -74 6
-191 18 -260 25 -69 8 -197 22 -285 30 -178 17 -229 24 -223 31 4 4 206 -12
468 -36 58 -5 231 -21 385 -35 154 -13 399 -36 545 -49 146 -14 296 -26 333
-28 l69 -3 -1 125 c-3 447 -15 817 -26 835 -7 12 -13 63 -14 124 -1 57 -6 126
-11 155 -4 28 -5 69 -1 91 3 22 4 66 1 98 -5 44 -3 60 7 64 10 4 9 9 -4 19
-16 13 -16 14 11 12 16 -2 31 2 33 9 3 7 -10 13 -34 15 -38 3 -38 3 -37 46 0
26 7 47 16 55 19 15 33 57 19 57 -5 0 -10 37 -10 88 -3 317 1 382 21 382 6 0
8 14 5 33 -3 19 -2 39 2 46 5 7 5 31 0 54 -4 23 -4 44 1 47 4 3 9 42 11 87 4
75 2 82 -13 77 -31 -9 -58 14 -58 49 0 41 15 57 53 57 15 0 26 4 22 10 -3 5
-6 95 -6 200 l0 190 -44 0 c-25 0 -45 -4 -45 -10 0 -5 -17 -10 -37 -11 l-38
-1 37 -12 c44 -13 59 -26 30 -26 -15 0 -20 -5 -17 -19 5 -25 -18 -31 -132 -31
-114 0 -127 -19 -15 -22 l77 -2 -79 -5 c-50 -4 -81 -11 -84 -18 -2 -7 3 -13
12 -13 9 0 16 -5 16 -12 0 -9 3 -9 12 0 7 7 15 12 19 12 13 0 18 -2074 5
-2087 -12 -12 -79 -13 -93 -1 -7 6 -13 7 -13 2 1 -14 37 -54 49 -54 6 0 11 -4
11 -10 0 -5 7 -7 15 -4 8 4 22 0 31 -7 11 -9 18 -9 22 -2 7 10 35 10 110 -1
40 -6 67 -25 53 -39 -5 -5 -7 -15 -5 -21 2 -6 -13 -20 -33 -30 -21 -10 -45
-22 -53 -26 -8 -4 -19 -21 -24 -39 -10 -35 -18 -38 -40 -16 -17 17 -36 20 -36
5 0 -6 -16 -8 -41 -4 -28 5 -43 3 -49 -6 -9 -14 -70 -5 -70 11 0 15 -38 10
-47 -6 -8 -13 -12 -13 -37 0 -37 20 -91 19 -110 -1 -9 -8 -16 -11 -16 -5 0 20
-43 11 -69 -13 -21 -19 -41 -25 -104 -30 -64 -5 -79 -3 -83 9 -7 17 -34 21
-34 5 0 -10 -88 -2 -105 10 -5 4 -25 10 -43 14 -19 3 -46 14 -60 24 -35 25
-79 35 -84 21 -4 -12 -120 37 -126 53 -2 4 -12 8 -23 8 -33 0 -21 20 14 21 31
1 31 1 7 10 -31 11 169 3 460 -18 118 -8 238 -16 265 -18 28 -2 94 -6 148 -10
94 -7 100 -6 96 21 0 4 4 10 9 13 7 4 4 14 -6 27 -16 20 -21 21 -97 11 -58 -7
-80 -7 -83 1 -2 8 -24 10 -67 6 -40 -3 -65 -1 -70 5 -3 6 -13 11 -22 11 -13 0
-13 -3 -3 -15 11 -13 4 -15 -51 -15 -35 0 -102 3 -149 8 l-85 7 120 5 c189 8
124 16 -400 50 -162 11 -268 28 -259 41 2 5 -7 11 -21 15 -14 3 -25 12 -25 20
0 8 -7 14 -15 14 -8 0 -15 8 -15 19 0 10 -6 24 -14 30 -14 12 -25 70 -31 175
-1 33 -8 62 -15 66 -7 4 -10 17 -8 28 4 13 0 23 -9 26 -8 4 -13 12 -10 19 3 8
1 33 -3 58 -14 74 -15 677 -1 698 5 7 13 11 19 7 21 -13 22 13 1 28 -23 16
-23 12 -15 173 1 28 8 58 14 66 15 18 26 123 14 131 -5 3 -5 28 -1 58 5 29 15
94 22 143 15 101 20 115 45 115 13 0 14 2 4 9 -15 9 -7 54 14 86 8 11 14 31
14 45 0 20 2 22 10 10 8 -13 11 -13 19 -1 5 8 18 12 29 9 11 -3 26 -2 33 3 10
6 11 9 2 9 -15 0 -17 46 -3 55 23 14 7 25 -39 25 -59 0 -81 19 -24 21 37 1 37
2 8 8 -30 7 -32 12 -21 59 l5 22 -289 0 c-182 0 -290 -4 -292 -10z m-3508
-347 c-1 -28 -26 -33 -260 -48 -135 -9 -288 -20 -340 -25 -176 -17 -420 -24
-420 -12 0 6 8 16 18 21 19 10 284 32 622 51 113 7 210 13 215 15 21 7 165 5
165 -2z m-50 -80 c0 -12 -33 -43 -46 -43 -27 0 -71 -35 -103 -81 -19 -28 -41
-49 -51 -49 -10 0 -20 -7 -24 -15 -3 -8 -12 -15 -20 -15 -8 0 -18 -9 -21 -21
-4 -11 -18 -24 -31 -30 -14 -5 -22 -13 -19 -19 3 -5 1 -19 -5 -30 -6 -11 -13
-53 -15 -93 -6 -93 -6 -102 -4 -134 1 -18 -6 -32 -21 -43 -33 -23 -94 -80 -85
-80 4 0 -4 -9 -19 -21 -28 -22 -46 -18 -46 9 0 15 -2 15 -10 2 -5 -8 -10 -37
-10 -63 0 -44 -2 -48 -20 -42 -43 14 -3 -57 46 -83 12 -6 24 -20 26 -30 5 -16
-1 -18 -48 -18 -45 1 -57 -3 -83 -28 -37 -35 -48 -84 -32 -136 16 -53 52 -80
108 -80 24 0 53 5 64 10 28 16 49 63 49 113 0 43 1 43 30 39 l30 -4 0 -79 c0
-72 2 -79 20 -79 21 0 26 23 21 99 l-3 34 49 -8 c26 -4 56 -8 65 -7 14 1 18
-10 20 -56 2 -45 7 -58 21 -60 15 -3 17 5 17 57 0 60 15 83 25 39 31 -134 32
-155 13 -179 -17 -22 -19 -23 -29 -6 -5 9 -19 17 -29 17 -11 0 -25 9 -32 20
-15 24 -34 26 -42 4 -8 -20 -26 -8 -26 18 0 17 -5 19 -26 15 -15 -2 -56 -1
-93 4 -58 7 -69 6 -96 -13 -30 -21 -75 -80 -75 -100 0 -6 -12 -22 -26 -35 -24
-22 -26 -29 -20 -76 8 -56 52 -157 69 -157 5 0 3 -8 -6 -17 -8 -10 -19 -30
-22 -45 -10 -38 -17 -35 -38 14 -19 47 -29 44 -51 -17 -14 -39 -14 -40 -24
-15 -26 67 -26 70 8 70 27 0 31 3 28 23 -3 20 -10 22 -63 25 -51 3 -61 0 -76
-19 -24 -32 -36 -17 -44 53 -5 44 -13 67 -26 76 -17 12 -19 28 -19 153 l0 141
31 -26 c23 -20 42 -26 75 -26 51 0 84 14 84 35 0 17 -26 20 -35 5 -11 -18 -74
-11 -95 10 -25 25 -27 105 -4 138 17 24 70 30 104 12 25 -13 38 7 17 27 -16
17 -89 23 -122 11 -20 -8 -20 -4 -19 385 1 475 0 446 22 453 9 4 31 12 49 20
17 8 63 14 104 14 40 0 163 7 273 15 346 26 386 28 386 18z m-882 -618 c-2
-491 -9 -508 -22 -50 -9 319 -8 577 1 600 17 45 22 -78 21 -550z m9848 171 c7
-3 10 -43 9 -115 -2 -112 -13 -148 -42 -137 -19 8 -16 -10 7 -42 15 -22 20
-46 22 -124 1 -54 6 -98 11 -98 5 0 6 -135 2 -302 -3 -167 -5 -321 -3 -343 1
-22 3 -96 3 -165 l0 -125 -145 2 c-237 3 -490 15 -490 22 0 8 63 38 270 131
227 101 328 150 312 150 -36 0 -579 -188 -705 -244 -51 -23 -70 -26 -176 -26
-65 0 -152 3 -194 6 l-75 7 -7 41 c-4 23 -9 223 -12 446 -3 320 -1 407 9 415
7 5 13 17 13 25 0 11 11 15 45 14 43 -1 781 -5 848 -4 l32 0 0 76 c0 44 -4 73
-9 69 -6 -3 -10 3 -10 12 0 58 -5 83 -19 83 -11 0 -13 7 -7 28 15 54 9 91 -16
114 -15 14 -34 22 -48 20 -15 -2 -21 0 -17 7 4 6 13 11 21 11 7 0 16 12 19 28
l6 27 168 -3 c92 -1 172 -4 178 -6z m-9446 -508 c48 -52 12 -158 -54 -158 -47
0 -71 30 -71 90 0 33 6 54 19 69 26 28 79 28 106 -1z m636 -128 c22 0 17 -37
-6 -43 -12 -3 -20 -14 -20 -25 0 -11 -3 -28 -7 -38 -5 -14 -1 -16 25 -12 29 4
32 2 32 -23 0 -15 5 -31 10 -34 6 -3 10 -25 10 -48 0 -50 -21 -38 -23 14 -2
28 -6 34 -24 33 -15 0 -23 5 -23 17 0 28 -61 40 -100 19 -15 -8 -18 -15 -10
-34 19 -51 -31 -50 -55 2 -10 20 -24 42 -31 47 -7 6 -10 23 -7 41 l5 30 46 -9
c59 -12 97 2 120 43 10 17 23 28 30 25 8 -3 20 -5 28 -5z m-182 -466 c9 -4 16
-18 16 -34 0 -16 5 -41 11 -57 6 -15 12 -36 15 -47 2 -10 10 -26 17 -35 8 -9
13 -21 11 -26 -2 -6 5 -28 16 -50 24 -48 16 -60 -41 -56 -41 2 -89 21 -119 46
-8 7 -30 12 -47 12 -38 0 -41 2 -46 31 -2 12 -6 25 -10 28 -4 4 -7 22 -7 41 0
18 -4 33 -10 33 -5 0 -10 11 -10 25 0 15 5 25 13 24 36 -4 59 3 64 20 3 12 22
24 56 34 29 8 53 15 54 16 1 0 8 -2 17 -5z m1082 -90 c22 -17 34 -35 34 -50 0
-13 -4 -24 -9 -24 -5 0 0 -17 10 -37 17 -36 79 -463 79 -544 l0 -32 -61 7
c-34 3 -78 6 -98 6 -64 0 -65 1 -47 156 9 77 21 186 27 244 8 74 17 111 29
125 27 31 32 89 10 108 -10 8 -21 13 -24 10 -8 -8 -8 21 0 41 8 21 9 21 50
-10z m4366 -2141 c-16 -6 -5 -23 14 -23 8 0 12 5 9 10 -3 6 -1 10 4 10 6 0 11
-8 11 -17 0 -15 2 -15 9 -4 7 11 13 12 23 3 11 -9 17 -9 26 0 9 9 20 7 47 -7
26 -15 37 -17 46 -8 16 16 107 4 139 -18 28 -20 75 -36 67 -23 -3 5 6 10 19
10 13 1 24 -2 24 -6 0 -5 15 -4 32 1 18 5 33 9 34 9 1 0 4 -9 7 -21 4 -13 10
-18 18 -13 8 4 10 3 5 -4 -9 -16 -66 -15 -66 0 0 6 -3 9 -6 6 -9 -10 16 -48
31 -48 8 0 15 5 15 10 0 6 6 10 14 10 7 0 20 9 27 20 12 18 19 19 48 10 23 -6
38 -6 46 0 16 13 48 1 41 -16 -6 -15 19 -38 33 -30 5 4 12 2 16 -4 9 -15 23
-12 27 5 2 12 9 10 30 -9 21 -20 33 -24 62 -19 28 4 36 2 36 -10 0 -18 21 -27
60 -27 19 0 29 -6 33 -20 5 -21 31 -27 42 -10 10 16 28 12 21 -5 -3 -8 0 -15
6 -15 18 0 58 42 58 61 0 20 32 30 70 23 17 -4 32 0 43 10 21 22 30 20 22 -4
-8 -24 12 -100 26 -100 6 0 7 5 3 12 -5 8 0 9 15 5 21 -5 22 -3 16 21 -4 15
-12 30 -18 35 -8 5 -5 7 8 5 13 -2 21 -12 23 -31 3 -21 8 -27 20 -23 9 3 24 1
32 -4 12 -8 12 -10 -5 -11 -12 0 -15 -3 -7 -6 10 -4 9 -8 -4 -17 -23 -17 -141
-11 -135 6 2 7 6 31 9 53 4 36 3 38 -12 26 -9 -7 -16 -22 -16 -33 0 -10 -4
-17 -9 -14 -5 3 -12 -1 -15 -10 -3 -8 -10 -13 -15 -10 -14 9 -29 -16 -26 -43
1 -14 8 -27 16 -29 11 -3 11 -1 -1 7 -12 9 -11 11 8 11 14 0 22 6 23 18 1 15
2 15 6 -2 4 -16 12 -18 59 -13 31 3 54 2 54 -4 0 -5 -10 -9 -22 -10 -22 -1
-22 -1 2 -8 14 -4 27 -4 28 1 5 12 32 10 32 -2 0 -5 5 -10 10 -10 6 0 10 9 10
19 0 25 20 38 31 20 5 -8 3 -16 -4 -21 -6 -4 -8 -11 -3 -15 4 -4 13 0 20 9 14
19 93 38 82 19 -4 -6 -16 -11 -26 -11 -10 0 -22 -4 -25 -10 -3 -5 3 -10 14
-10 24 0 38 -19 21 -30 -8 -5 -7 -9 4 -13 11 -5 16 -1 16 13 0 11 5 19 12 17
22 -4 19 30 -6 60 -14 17 -23 33 -20 36 3 3 22 3 43 0 23 -3 41 -1 45 6 5 7 1
8 -10 4 -12 -4 -15 -3 -10 5 8 13 35 16 60 6 21 -8 10 -24 -16 -24 -20 0 -20
-1 -3 -20 10 -11 22 -17 28 -13 6 3 7 1 3 -5 -4 -7 -21 -12 -37 -12 -31 0 -51
-26 -30 -39 6 -4 38 -7 71 -7 41 1 60 -3 60 -11 0 -7 7 -10 15 -7 21 9 19 25
-5 31 -11 3 -20 9 -20 14 0 5 -7 9 -15 9 -8 0 -15 2 -15 4 0 2 -3 12 -6 21 -6
14 -4 15 12 6 10 -6 42 -15 69 -20 48 -8 49 -9 12 -10 -32 -1 -36 -3 -25 -14
7 -8 25 -20 38 -27 l25 -13 -28 -10 c-33 -11 -36 -36 -4 -34 12 0 24 4 27 8 3
4 17 5 31 2 18 -3 30 -16 42 -45 17 -39 26 -44 31 -16 1 7 7 22 13 33 9 16 14
17 24 8 9 -9 16 -9 25 -2 10 8 12 5 11 -11 -1 -17 -6 -20 -27 -15 -19 5 -22 4
-13 -6 16 -16 5 -39 -18 -39 -11 0 -22 -7 -25 -15 -5 -11 -11 -12 -24 -5 -24
13 -48 3 -55 -21 -4 -10 -13 -19 -21 -19 -8 0 -16 0 -19 0 -3 0 -4 3 -2 7 1 5
8 7 15 5 7 -2 12 7 12 19 0 12 -3 20 -6 16 -12 -12 -33 21 -27 43 5 19 4 21
-13 12 -22 -12 -65 -47 -46 -37 7 3 12 0 12 -8 0 -9 -15 -18 -37 -22 -43 -8
-73 -22 -73 -34 0 -13 53 0 73 17 9 8 20 12 24 9 3 -4 15 0 25 10 10 9 21 13
26 8 4 -4 1 -10 -5 -12 -7 -3 -13 -11 -13 -19 0 -8 -4 -14 -10 -14 -5 0 -10
-7 -10 -15 0 -17 56 -22 62 -5 3 11 44 1 106 -27 18 -8 37 -11 42 -8 6 3 10
-2 10 -12 0 -11 6 -28 14 -38 12 -17 14 -17 37 -2 13 10 27 17 31 17 15 0 8
-29 -9 -39 -17 -9 -17 -10 2 -17 11 -4 23 -12 27 -18 5 -8 8 -7 8 1 0 7 7 10
16 6 16 -6 16 -7 0 -18 -19 -14 -12 -45 11 -45 8 0 11 5 8 10 -3 6 1 10 9 10
9 0 16 8 17 18 0 9 3 12 5 5 3 -7 12 -9 20 -6 18 7 19 -27 2 -46 -11 -11 -10
-13 5 -8 11 4 20 1 23 -8 8 -21 21 -19 27 5 3 13 14 20 29 20 13 0 29 -9 36
-20 7 -11 17 -20 23 -20 5 0 7 5 4 10 -3 6 3 10 15 10 17 0 19 -4 14 -25 -5
-22 -3 -25 18 -25 13 0 33 -7 44 -15 10 -8 15 -14 9 -14 -23 0 -107 26 -113
35 -4 5 -29 9 -55 9 -31 0 -51 6 -58 15 -7 12 -11 12 -17 2 -6 -9 -16 -10 -40
-1 -18 6 -32 15 -32 21 0 5 -9 7 -19 3 -22 -7 -71 3 -68 14 4 15 -64 72 -89
74 -28 2 -45 -18 -22 -26 7 -2 5 -3 -4 -2 -9 2 -19 -3 -22 -11 -3 -8 -16 -13
-30 -12 -28 3 -24 18 5 18 10 0 19 5 19 10 0 6 -9 10 -21 10 -11 0 -17 5 -14
10 8 14 -8 13 -22 -1 -7 -7 -19 -9 -27 -6 -31 12 -15 26 35 33 50 7 72 25 52
45 -13 13 -73 0 -67 -16 3 -7 -4 -15 -16 -18 -12 -3 -24 -15 -27 -27 -3 -12
-9 -18 -12 -13 -3 5 -19 17 -34 26 -28 18 -46 14 -68 -17 -4 -4 -16 -3 -27 3
-26 14 -45 14 -37 1 9 -15 -46 0 -62 16 -7 7 -29 11 -48 9 -27 -2 -36 1 -40
16 -4 11 -10 17 -14 15 -4 -3 -26 2 -49 9 -23 8 -48 12 -56 9 -19 -7 -58 14
-50 27 3 6 13 8 21 5 11 -4 13 -2 9 9 -3 8 -1 15 4 15 6 0 10 -9 10 -20 0 -11
5 -20 11 -20 7 0 8 7 4 18 -4 9 -8 22 -9 27 -5 31 -36 48 -36 21 0 -10 -7 -12
-22 -9 -18 4 -20 3 -12 -6 17 -19 7 -44 -26 -63 -26 -15 -29 -15 -35 0 -7 18
11 32 40 32 15 0 17 2 6 9 -8 5 -11 16 -7 29 5 16 2 20 -19 20 -25 0 -34 -21
-15 -33 6 -3 10 -11 10 -17 0 -6 -3 -8 -6 -5 -4 4 -19 -2 -34 -13 -22 -15 -30
-17 -37 -7 -20 25 -22 34 -8 34 8 0 15 -7 15 -16 0 -11 3 -10 14 5 10 13 11
21 3 26 -7 4 -7 11 2 22 11 14 11 16 -3 16 -10 0 -15 4 -11 10 3 5 12 7 20 3
10 -3 15 2 15 17 0 16 -5 20 -17 16 -37 -11 -93 -15 -93 -6 0 6 8 11 18 12 9
0 22 2 27 3 6 2 15 3 20 4 6 1 0 6 -13 12 -13 5 -20 13 -17 19 3 5 1 10 -5 10
-7 0 -9 7 -6 16 6 15 4 15 -11 3 -39 -32 -52 -48 -42 -55 6 -3 8 -12 5 -19 -2
-7 3 -16 12 -20 14 -5 14 -7 2 -15 -8 -6 -24 -9 -35 -9 -15 1 -16 2 -4 6 11 3
15 12 11 28 -5 30 -18 32 -32 5 -6 -11 -15 -20 -21 -20 -12 0 6 28 53 78 122
133 127 143 35 70 -53 -41 -81 -51 -51 -17 19 22 19 22 -4 10 -13 -7 -36 -10
-51 -6 -21 4 -30 2 -34 -9 -4 -9 -14 -16 -24 -17 -14 0 -12 -3 5 -10 25 -10
46 -4 37 11 -3 5 -1 11 5 15 6 3 13 -1 16 -9 3 -9 12 -16 20 -16 23 0 16 -18
-14 -33 -17 -8 -37 -11 -49 -6 -27 10 -53 47 -46 65 3 8 -1 14 -10 14 -9 0
-14 -10 -14 -25 0 -14 -8 -34 -17 -43 -11 -13 -13 -21 -5 -29 7 -7 4 -12 -10
-16 -17 -4 -21 0 -21 19 0 14 -7 35 -16 49 -8 13 -14 32 -12 42 2 11 -3 18
-12 18 -9 0 -15 -9 -14 -22 0 -15 -5 -23 -17 -23 -9 0 -19 -10 -22 -21 -4 -16
-11 -20 -26 -16 -12 3 -21 2 -21 -2 0 -17 13 -18 52 -4 34 11 43 12 49 1 6
-10 -1 -14 -26 -16 -20 -2 -33 -7 -30 -13 4 -5 -1 -9 -9 -9 -9 0 -16 -7 -16
-15 0 -11 6 -12 23 -6 12 5 31 5 42 1 11 -4 26 -5 32 -3 22 8 28 -28 8 -43
-15 -11 -21 -11 -38 1 -13 9 -27 11 -43 5 -20 -8 -24 -6 -24 10 0 10 -4 22
-10 25 -5 3 -10 2 -10 -3 0 -14 -27 -23 -46 -15 -11 4 -14 13 -9 31 5 22 4 24
-8 13 -18 -14 -67 -5 -83 15 -10 12 -13 12 -18 -2 -3 -9 -2 -22 4 -29 13 -16
4 -24 -20 -18 -15 4 -18 11 -13 35 5 27 4 30 -16 23 -17 -5 -21 -2 -21 14 0
11 -5 23 -11 27 -8 4 -9 0 -4 -15 5 -17 3 -20 -12 -14 -10 3 -23 10 -29 15 -8
5 -18 3 -27 -7 -17 -17 -47 -10 -47 11 0 8 9 14 20 14 11 0 20 4 20 9 0 5 14
12 30 16 17 4 30 13 30 22 0 11 -7 14 -22 10 -13 -3 -32 -1 -43 3 -11 5 -15 9
-10 10 6 1 -1 5 -15 9 -22 6 -19 8 23 15 31 5 47 12 47 22 0 8 4 14 8 14 18 0
20 -13 5 -36 -13 -21 -13 -24 0 -24 8 0 25 8 38 19 21 17 22 20 7 35 -9 9 -27
16 -40 17 -15 1 -7 5 20 13 47 12 48 27 2 19 -36 -5 -104 13 -125 33 -8 8 -15
11 -15 5 0 -5 7 -16 15 -25 20 -19 19 -42 -1 -50 -21 -8 -39 -8 -31 1 11 10
-26 32 -54 33 -33 0 -42 -9 -27 -27 6 -8 7 -13 2 -12 -21 4 -26 -2 -14 -17 11
-12 10 -18 -5 -32 -10 -9 -15 -12 -11 -5 3 6 -1 19 -11 28 -15 15 -15 19 -2
29 21 17 18 60 -6 65 -17 3 -18 1 -5 -14 12 -15 12 -17 -5 -14 -11 2 -26 0
-32 -4 -9 -6 -11 -3 -7 7 7 18 -11 22 -21 6 -8 -13 -25 -3 -25 15 0 9 10 12
32 10 28 -4 29 -3 13 9 -25 18 -11 36 28 37 28 0 29 1 11 9 -12 4 -24 16 -28
26 -6 17 -6 17 12 1 10 -9 26 -17 35 -17 9 0 19 -11 23 -25 3 -14 10 -25 15
-25 12 0 11 7 -1 31 -7 12 -7 19 -1 19 5 0 17 7 25 16 20 20 22 41 2 25 -10
-8 -16 -9 -21 -1 -3 5 -1 10 6 10 8 0 8 4 -2 16 -9 11 -22 14 -41 10 -17 -3
-28 -1 -28 5 0 6 -7 8 -16 5 -9 -3 -26 -9 -39 -12 -20 -5 -22 -2 -18 20 4 22
2 26 -16 26 -13 0 -19 4 -16 10 4 6 14 8 23 6 10 -3 24 -1 32 4 8 5 17 6 20 3
3 -3 -1 -8 -8 -10z m-462 -104 c0 -18 4 -20 30 -14 16 4 40 3 52 -1 22 -7 22
-7 3 -15 -17 -6 -17 -8 -2 -8 9 -1 26 -10 37 -21 16 -16 18 -23 8 -34 -7 -7
-20 -11 -30 -8 -10 2 -18 -1 -18 -7 0 -6 7 -11 15 -11 8 0 24 -9 36 -21 16
-16 28 -20 52 -15 l30 6 -23 -20 c-26 -23 -23 -22 -44 -14 -9 3 -16 12 -16 19
0 8 -5 17 -11 20 -14 9 -59 -3 -59 -16 0 -7 10 -9 28 -4 25 6 26 5 7 -8 -10
-8 -25 -13 -32 -10 -7 3 -13 -1 -13 -10 0 -10 -8 -13 -25 -9 -26 4 -26 5 -5
19 26 19 25 30 -2 29 -18 -1 -22 4 -20 19 5 26 11 32 20 18 14 -23 31 3 29 42
-3 39 -4 40 -45 46 -44 6 -68 -5 -32 -14 11 -3 20 -11 20 -19 0 -10 -2 -11 -9
0 -4 7 -12 12 -17 11 -21 -4 -44 2 -44 11 0 5 14 16 30 25 17 9 30 22 30 31 0
8 5 12 10 9 6 -3 10 -15 10 -26z m-310 1 c0 -5 -6 -10 -12 -11 -7 0 -4 -4 7
-9 l20 -9 -20 -1 c-18 -1 -19 -1 -2 -11 21 -12 22 -29 2 -29 -8 0 -15 -4 -15
-8 0 -5 20 -9 44 -10 39 0 103 -21 68 -22 -9 0 -11 -7 -7 -19 5 -17 2 -19 -22
-17 -15 2 -29 8 -31 15 -3 9 -8 9 -17 1 -10 -8 -15 -6 -20 9 -3 12 -15 21 -25
21 -13 0 -17 -5 -14 -15 4 -9 0 -15 -10 -15 -8 0 -13 -6 -10 -13 2 -7 -2 -21
-10 -32 -13 -18 -15 -19 -21 -3 -5 13 -14 16 -36 11 -21 -4 -29 -2 -29 9 0 11
-11 14 -41 14 -23 -1 -43 4 -45 9 -2 6 21 25 50 42 46 28 61 32 100 28 37 -3
44 -2 39 10 -3 8 -15 15 -27 16 -23 1 -17 4 27 13 15 4 27 13 27 21 0 8 7 15
15 15 8 0 15 -4 15 -10z m3520 -322 c25 -6 58 -10 73 -9 15 1 84 -8 153 -20
115 -19 161 -26 189 -29 20 -2 -23 -20 -54 -22 -17 -1 -31 -6 -31 -10 0 -4 -7
-8 -15 -8 -8 0 -15 -9 -15 -21 0 -16 -4 -19 -22 -14 -22 7 -22 6 -4 -7 13 -10
15 -17 8 -22 -21 -13 -13 -34 12 -32 30 1 53 24 33 32 -20 7 -9 44 13 44 10 0
21 -7 24 -16 5 -12 2 -15 -11 -10 -16 5 -16 4 1 -9 14 -10 16 -18 9 -27 -12
-16 -13 -48 -1 -48 4 0 8 -4 8 -10 0 -5 -9 -10 -20 -10 -14 0 -20 -7 -20 -22
0 -13 -4 -18 -8 -13 -4 6 -15 10 -24 11 -73 3 -74 4 -54 19 10 8 24 16 30 18
7 2 5 10 -6 20 -21 22 -35 21 -47 0 -14 -27 -23 -9 -10 20 6 14 21 28 33 32
19 7 19 8 2 12 -10 3 -23 0 -29 -6 -18 -18 -36 -13 -34 9 1 11 5 20 9 20 4 0
8 5 8 10 0 6 -7 10 -16 10 -11 0 -15 6 -11 20 3 11 4 20 2 20 -2 0 -10 3 -18
6 -8 3 -22 -2 -31 -11 -9 -9 -16 -12 -16 -6 0 7 -10 9 -25 5 -20 -5 -24 -3
-19 9 4 12 -2 18 -20 23 -14 3 -26 10 -26 14 0 4 -18 10 -40 14 -22 3 -40 11
-40 16 0 12 4 12 60 -2z m-9642 -187 c2 -7 -5 -15 -17 -18 -23 -6 -27 -18 -10
-29 8 -4 8 -9 0 -17 -15 -15 -14 -27 4 -27 8 0 15 -7 15 -15 0 -8 -9 -15 -20
-15 -21 0 -27 -15 -10 -25 6 -4 17 -1 25 5 11 9 18 9 30 -4 10 -9 33 -16 56
-16 37 0 39 -2 29 -20 -11 -20 -40 -28 -40 -11 0 4 -28 14 -62 22 -43 9 -69
20 -81 36 -21 27 -42 31 -33 7 5 -14 4 -15 -8 -5 -8 7 -19 10 -25 7 -14 -9
-41 4 -41 21 0 10 6 12 20 8 29 -9 26 19 -5 43 -20 16 -22 21 -10 26 22 8 72
-4 86 -20 18 -22 41 -18 34 6 -4 12 -2 20 5 20 6 0 9 4 5 9 -6 11 24 32 39 28
6 -2 12 -9 14 -16z m6402 -41 c0 -5 -4 -10 -10 -10 -5 0 -10 -7 -10 -15 0 -10
-10 -15 -26 -15 -24 0 -26 -3 -20 -30 3 -17 1 -30 -4 -30 -6 0 -10 5 -10 10 0
6 -7 10 -15 10 -21 0 -19 -17 3 -24 9 -3 23 -20 31 -37 7 -17 25 -35 38 -40
21 -8 23 -12 13 -24 -10 -12 -9 -15 4 -15 9 0 16 -6 16 -14 0 -12 -7 -13 -31
-6 -18 5 -36 7 -40 4 -5 -3 -9 -1 -9 4 0 6 7 12 15 16 20 7 19 35 -1 32 -9 -1
-22 -10 -29 -20 -8 -10 -16 -13 -19 -7 -4 5 -1 13 5 17 8 4 7 9 -2 16 -11 8
-10 8 4 4 11 -3 20 0 24 10 7 20 -1 27 -35 30 -15 2 -36 6 -47 9 -16 5 -21 1
-22 -15 -1 -15 3 -20 12 -16 18 7 26 -6 15 -24 -7 -12 -13 -11 -33 8 -26 25
-46 30 -27 7 7 -8 9 -15 4 -15 -5 0 -1 -5 8 -11 32 -18 9 -37 -54 -44 -66 -8
-96 5 -59 24 15 9 21 9 21 1 0 -7 6 -10 13 -7 6 2 11 10 10 16 -2 6 2 11 8 11
5 0 8 4 4 9 -7 12 34 41 58 41 10 0 16 4 12 9 -3 5 18 27 46 48 28 21 65 50
82 65 33 28 57 36 57 18z m-5952 -33 c7 -15 21 -27 31 -27 12 0 17 -8 16 -27
0 -23 -4 -28 -23 -25 -20 2 -22 -1 -17 -20 12 -37 21 -40 39 -14 19 30 40 35
31 7 -8 -26 20 -35 49 -15 13 8 26 24 29 36 4 14 11 19 22 14 9 -3 26 -6 36
-6 16 0 19 -4 14 -21 -5 -14 -2 -25 6 -30 11 -7 10 -9 -3 -9 -26 0 -22 -18 5
-22 l22 -3 -22 -22 c-12 -12 -19 -24 -16 -26 3 -3 -5 -3 -17 0 -20 5 -22 3
-18 -21 8 -39 -35 -77 -48 -42 -3 8 -15 11 -30 8 -15 -3 -32 2 -44 13 -11 10
-26 15 -33 12 -22 -8 -97 14 -97 29 0 18 -21 29 -29 15 -5 -8 -31 -4 -92 14
-114 35 -134 47 -134 82 0 24 -4 28 -27 26 -31 -2 -39 12 -27 46 6 16 14 21
26 17 9 -4 19 -3 22 2 3 4 24 2 46 -5 l40 -13 -35 2 c-57 2 -84 -2 -76 -9 4
-5 17 -8 28 -8 15 0 21 -7 24 -29 3 -27 18 -45 37 -46 14 0 7 29 -10 39 -14 7
-15 12 -5 24 15 18 50 28 57 17 3 -5 -1 -13 -10 -17 -13 -8 -13 -13 1 -51 12
-29 23 -42 37 -42 13 0 17 5 14 15 -9 22 12 29 40 14 27 -14 56 -4 61 23 2 11
-7 13 -35 12 -21 -2 -30 -1 -20 2 9 3 14 10 11 16 -4 7 7 8 35 3 27 -4 41 -3
41 4 0 6 15 11 33 11 l32 1 -24 19 c-27 23 -51 26 -51 6 0 -21 -20 -30 -33
-17 -8 8 -6 11 6 11 9 0 17 4 17 8 0 14 35 52 45 49 6 -2 16 -16 23 -30z
m6811 -114 c1 11 9 17 24 17 17 0 19 -2 7 -10 -22 -14 -11 -18 64 -23 37 -3
72 -9 77 -14 12 -12 -13 -57 -34 -61 -9 -2 -17 1 -17 7 0 6 9 11 20 11 11 0
20 4 20 8 0 16 -13 21 -30 12 -11 -6 -24 -4 -38 6 -12 8 -27 12 -33 9 -14 -9
24 -50 62 -65 32 -14 40 -35 9 -27 -10 3 -24 -1 -31 -9 -9 -11 -8 -14 7 -14
11 0 26 -5 34 -10 12 -7 12 -12 2 -22 -19 -19 -14 -30 11 -26 16 2 22 -2 22
-16 0 -11 -6 -21 -12 -23 -7 -3 -13 2 -13 11 0 9 -8 16 -20 16 -14 0 -18 5
-13 18 4 12 -1 10 -15 -7 -25 -28 -26 -33 -10 -49 7 -7 8 -12 2 -12 -5 0 -25
16 -43 35 -18 20 -29 35 -25 34 19 -3 34 1 34 11 0 6 -7 10 -15 10 -8 0 -15 5
-15 10 0 13 23 13 37 -1 8 -8 13 -8 17 0 4 6 1 11 -7 11 -8 0 -18 7 -21 15 -5
13 -10 14 -27 5 -28 -15 -38 -4 -13 15 18 14 18 14 -8 15 -15 0 -30 5 -33 10
-3 6 -1 10 6 10 18 0 5 10 -20 15 -30 6 -41 14 -41 32 0 14 2 14 19 -1 25 -22
48 -12 26 11 -9 8 -13 18 -10 21 3 4 11 0 16 -8 9 -12 10 -12 5 3 -9 26 5 46
15 21 7 -17 8 -17 8 -1z m1984 -17 c12 -18 25 -24 51 -23 20 0 43 -6 53 -15
10 -9 25 -18 33 -20 8 -2 18 -7 21 -11 8 -12 49 14 49 30 0 7 -8 13 -17 14
-13 0 -11 3 6 10 14 5 31 7 38 5 7 -3 13 -1 13 4 0 6 5 10 11 10 5 0 7 -4 4
-10 -4 -6 5 -10 21 -10 24 0 25 -2 13 -17 -12 -15 -12 -16 5 -10 13 5 17 3 13
-7 -3 -8 2 -16 15 -19 15 -4 18 -11 13 -26 -6 -19 -3 -21 28 -17 28 3 39 -1
56 -20 15 -17 17 -24 7 -24 -8 0 -21 -3 -30 -6 -11 -4 -16 -1 -16 10 0 10 -8
16 -22 16 -19 0 -20 -2 -8 -11 11 -8 8 -9 -15 -4 -16 3 -34 11 -40 18 -11 14
-78 10 -70 -3 3 -5 12 -7 19 -4 7 3 19 -3 27 -12 8 -10 9 -15 3 -11 -20 12
-28 -45 -9 -59 20 -15 11 -34 -15 -34 -21 0 -37 19 -24 29 5 3 10 17 10 29 1
20 -2 23 -22 19 -20 -3 -22 -2 -13 15 9 17 8 18 -10 9 -25 -14 -28 -14 -34 3
-4 9 0 12 12 9 13 -3 18 1 17 18 -1 18 6 25 29 29 17 3 25 8 19 12 -14 9 -54
-2 -54 -14 0 -6 -9 -8 -20 -5 -15 4 -20 0 -20 -14 0 -10 -5 -19 -11 -19 -5 0
-9 10 -7 23 3 19 -3 23 -49 31 -34 6 -53 14 -53 22 0 8 -6 14 -12 14 -20 1
-58 36 -58 54 0 24 26 19 43 -8z m540 -36 c-6 -22 7 -26 25 -8 6 6 14 9 18 6
3 -4 -8 -14 -25 -23 -17 -8 -31 -20 -31 -25 0 -13 6 -13 40 5 17 9 30 11 30 5
0 -5 -8 -10 -17 -11 -11 0 -13 -3 -5 -6 19 -8 14 -31 -9 -38 -17 -6 -19 -9 -8
-16 28 -18 45 -10 47 23 3 38 22 64 22 30 0 -13 6 -22 16 -22 10 0 15 8 14 23
-4 40 0 58 10 52 5 -3 7 -12 3 -20 -3 -8 0 -15 6 -15 6 0 11 -8 11 -17 0 -20
-28 -53 -46 -53 -7 0 -10 -8 -7 -20 3 -11 12 -20 19 -20 17 0 19 20 2 21 -7 0
-4 4 7 9 25 10 38 -1 29 -24 -6 -15 -15 -17 -48 -13 -39 5 -40 5 -16 -8 25
-14 25 -14 3 -15 -19 0 -23 -5 -23 -35 0 -25 -4 -35 -16 -35 -10 0 -14 6 -10
15 3 9 0 15 -8 15 -8 0 -26 6 -40 14 -20 10 -23 15 -12 19 18 7 15 39 -5 46
-7 2 -19 10 -26 17 -11 10 -8 13 14 16 14 2 28 8 30 13 4 12 -43 35 -73 35
-29 0 -42 20 -20 32 9 5 16 16 16 23 0 18 -16 20 -23 3 -4 -10 -6 -10 -6 0 -1
19 23 25 63 14 19 -6 35 -7 35 -4 -3 16 2 23 10 18 5 -3 7 -15 4 -26z m-8946
-25 c-4 -8 -20 -18 -36 -21 -21 -4 -31 -13 -33 -28 -2 -14 -9 -20 -20 -18 -12
2 -16 -2 -12 -13 8 -19 34 -20 34 -1 0 17 24 28 45 20 8 -4 15 -2 15 4 0 6 -6
12 -12 15 -7 2 -10 8 -6 12 4 4 19 -2 34 -14 26 -21 56 -19 35 2 -13 13 -14
37 -2 37 5 0 17 -7 26 -16 9 -9 24 -14 36 -11 12 3 28 3 36 0 12 -5 10 -9 -8
-19 -17 -9 -29 -9 -43 -2 -15 8 -18 7 -13 -5 7 -18 -43 -42 -72 -34 -15 4 -18
1 -13 -12 5 -14 3 -14 -11 -3 -18 15 -37 8 -37 -13 0 -18 -38 -29 -54 -16 -7
6 -15 8 -18 5 -4 -3 -20 2 -37 11 -31 16 -40 38 -20 50 6 4 8 14 5 22 -5 12
-1 14 18 9 14 -3 28 -1 31 4 5 8 11 8 20 0 8 -7 15 -7 19 -1 3 5 0 12 -6 14
-7 3 -2 6 12 7 24 1 23 2 -10 21 l-35 20 40 -6 c22 -3 48 -8 58 -11 12 -4 17
0 17 12 0 13 3 15 11 7 7 -7 9 -19 6 -28z m572 -19 c8 -10 9 -16 1 -21 -15 -9
-12 -35 4 -35 22 0 28 -17 16 -40 -11 -21 3 -29 15 -9 5 6 13 3 22 -10 8 -12
21 -21 29 -21 8 0 14 -4 14 -10 0 -5 5 -10 10 -10 6 0 10 7 10 16 0 11 6 15
19 11 10 -2 24 -1 31 3 8 5 -3 10 -29 15 -22 4 -41 11 -41 16 0 12 27 12 35
-1 3 -5 14 -10 23 -10 34 0 44 -15 31 -43 -10 -21 -9 -30 1 -43 12 -14 10 -15
-26 -9 -21 4 -47 9 -56 12 -13 3 -16 0 -12 -11 3 -9 14 -16 23 -16 31 0 42
-15 32 -41 -5 -13 -10 -18 -10 -10 -1 7 -7 11 -16 7 -8 -3 -26 0 -40 6 -26 12
-34 28 -13 28 6 0 3 7 -8 15 -10 8 -29 15 -40 15 -28 0 -40 29 -16 36 47 16
47 16 23 25 -14 6 -31 7 -39 4 -10 -4 -12 0 -8 11 4 10 2 14 -6 11 -14 -4 -16
-30 -4 -65 6 -19 4 -24 -12 -29 -12 -3 -20 -13 -19 -24 1 -15 9 -18 45 -16 38
1 48 -3 70 -28 21 -25 33 -30 73 -31 33 0 46 3 43 11 -8 19 38 27 55 10 11
-11 12 -17 3 -28 -7 -8 -9 -17 -5 -20 8 -9 46 -9 66 -1 13 5 13 8 -4 25 -10
10 -23 19 -29 19 -5 0 -10 5 -10 11 0 6 9 8 20 4 25 -8 27 10 3 24 -23 13 -8
14 17 1 13 -7 21 -7 25 0 4 6 10 8 15 5 10 -6 1 -45 -11 -45 -5 0 -9 -4 -9
-10 0 -5 9 -10 19 -10 11 0 21 -4 23 -10 2 -5 22 -11 45 -12 24 -2 43 -7 43
-13 0 -16 -53 -56 -67 -51 -7 3 -13 4 -13 2 0 -3 -3 -11 -6 -20 -8 -22 25 -21
41 1 9 12 31 18 81 21 51 2 65 0 54 -7 -13 -10 -13 -12 0 -21 12 -8 11 -10 -8
-10 -13 0 -20 4 -17 10 3 6 1 10 -4 10 -6 0 -11 -5 -11 -12 0 -9 -3 -9 -12 0
-17 17 -57 15 -64 -3 -9 -22 -124 -22 -124 1 0 12 -7 14 -30 9 -20 -4 -30 -3
-30 5 0 17 26 40 44 40 9 0 16 5 16 10 0 12 -27 13 -34 1 -3 -5 -21 -9 -38 -9
-18 -1 -53 -3 -77 -5 -29 -2 -56 3 -80 15 -20 10 -42 16 -49 13 -17 -6 -54 13
-47 25 11 18 -32 48 -69 48 -20 0 -38 -3 -41 -7 -8 -14 -67 0 -61 14 3 8 -2
16 -10 19 -8 3 -14 12 -14 21 0 24 -17 17 -24 -10 -8 -31 -16 -31 -51 -3 l-27
21 23 18 c29 22 46 25 29 4 -10 -13 -9 -15 9 -15 11 0 21 5 21 10 0 6 10 8 24
4 24 -6 51 16 28 24 -19 6 -1 32 22 32 20 -1 20 -1 3 -11 -18 -10 -18 -12 2
-26 12 -8 19 -19 16 -24 -4 -5 1 -9 10 -9 12 0 15 5 11 16 -5 14 -1 16 22 11
33 -7 63 6 38 16 -9 4 -16 14 -16 23 0 13 -6 15 -29 11 -37 -8 -62 16 -34 32
17 11 17 12 -2 23 -19 11 -19 11 0 18 11 4 26 3 33 -3 10 -8 8 -15 -9 -34 -20
-20 -20 -23 -5 -23 9 0 26 5 37 11 15 7 24 7 35 -1 11 -10 16 -8 23 11 10 28
6 39 -14 39 -17 0 -10 24 14 51 20 22 26 22 40 5z m7478 -52 c-8 -8 18 -34 35
-35 7 0 3 -4 -9 -9 -14 -6 -20 -15 -17 -28 3 -10 -2 -24 -10 -31 -20 -17 -20
-31 -1 -31 8 0 15 -8 15 -18 0 -10 5 -23 12 -30 9 -9 9 -12 -2 -12 -10 0 -9
-5 4 -19 13 -15 15 -24 6 -46 -13 -33 1 -48 36 -39 14 4 23 0 27 -10 5 -12 -4
-17 -43 -22 -33 -4 -50 -11 -50 -20 0 -8 -7 -14 -15 -14 -19 0 -19 14 0 30 8
7 12 16 9 21 -10 16 -24 9 -24 -11 0 -11 -4 -20 -10 -20 -16 0 -12 40 6 58 11
10 13 17 5 20 -13 4 11 32 28 32 6 0 11 7 11 15 0 9 -6 12 -15 9 -8 -4 -15 -1
-15 5 0 6 6 11 14 11 9 0 12 7 9 20 -3 11 -11 20 -18 20 -7 0 -18 6 -24 14
-10 12 -9 20 5 41 15 23 15 25 0 19 -9 -3 -16 -11 -16 -18 0 -6 -4 -17 -8 -24
-11 -16 -72 4 -72 24 0 8 -4 14 -10 14 -5 0 -10 4 -10 9 0 12 73 21 84 10 9
-8 66 19 66 32 0 4 -7 10 -16 13 -16 6 -10 26 8 26 6 0 9 -3 5 -6z m-7969 -72
c-8 -9 10 -11 86 -9 83 2 92 1 71 -11 -27 -14 -32 -41 -13 -60 24 -24 -5 -25
-74 -2 -39 13 -76 30 -83 37 -7 6 -15 9 -19 6 -7 -8 -96 17 -96 28 0 14 114
45 126 34 8 -7 9 -14 2 -23z m7327 -162 c10 -19 20 -28 28 -23 7 4 1 -5 -13
-20 -14 -15 -31 -27 -37 -27 -7 0 -13 -4 -13 -9 0 -15 21 -25 29 -14 11 17 49
34 55 24 4 -5 -6 -14 -21 -19 -18 -7 -21 -11 -11 -11 23 -1 49 -61 35 -78 -5
-7 -16 -13 -23 -13 -8 0 -14 -4 -14 -9 0 -5 -16 -8 -35 -8 -37 1 -42 6 -23 25
9 9 9 12 -1 12 -8 0 -19 -7 -25 -16 -11 -14 -14 -14 -34 3 -21 17 -21 20 -7
47 18 35 19 46 3 46 -7 0 -14 11 -14 25 -1 16 3 25 13 25 8 0 12 -4 9 -9 -10
-16 6 -41 26 -41 15 0 19 6 16 27 -2 20 2 28 17 33 21 5 34 40 15 40 -5 0 -10
5 -10 10 0 21 20 9 35 -20z"/>
<path d="M17563 6683 c-22 -4 -22 -6 -8 -33 19 -37 19 -60 0 -60 -11 0 -12 -5
-5 -24 6 -18 5 -28 -6 -37 -12 -10 -11 -13 7 -23 32 -16 35 -36 8 -44 -22 -5
-21 -7 11 -13 20 -5 39 -4 45 2 15 15 8 221 -8 231 -6 4 -14 7 -17 6 -3 0 -15
-3 -27 -5z"/>
<path d="M17435 5880 c-38 -10 -110 -32 -160 -49 -98 -34 -547 -223 -541 -228
1 -2 45 8 97 22 124 32 312 100 439 158 30 14 100 44 155 67 55 24 102 44 104
46 9 8 -26 2 -94 -16z"/>
<path d="M12915 6592 c-3 -3 -5 -18 -5 -34 l0 -29 518 5 c567 5 563 4 577 15
6 4 27 7 47 6 28 -1 38 3 41 17 3 10 2 20 -2 22 -4 3 -87 4 -184 3 -138 -2
-180 -5 -186 -16 -6 -9 -10 -10 -13 -1 -5 17 -439 14 -450 -3 -6 -9 -10 -9
-15 -1 -8 12 -317 27 -328 16z"/>
<path d="M1635 6565 c-50 -18 -81 -56 -94 -117 -28 -130 40 -228 159 -228 74
0 146 43 110 65 -5 3 -20 -1 -32 -9 -66 -42 -158 -22 -184 40 -21 49 -18 133
6 171 29 47 86 63 151 39 57 -20 79 -14 53 15 -17 19 -73 39 -109 39 -11 -1
-38 -7 -60 -15z"/>
<path d="M7677 6574 c-4 -4 -7 -39 -7 -77 0 -66 -1 -69 -17 -55 -42 37 -117
29 -146 -15 -37 -57 -28 -149 20 -186 31 -25 89 -28 120 -6 19 13 22 13 27 0
3 -8 12 -15 21 -15 13 0 15 22 13 177 -3 166 -9 199 -31 177z m-23 -166 c23
-33 21 -109 -4 -136 -22 -23 -59 -28 -90 -12 -40 22 -48 112 -12 153 23 26 87
23 106 -5z"/>
<path d="M5254 6557 c-2 -7 -3 -85 -2 -172 l3 -160 97 0 c82 0 101 3 124 21
49 36 67 70 72 133 6 83 -24 146 -82 172 -50 23 -203 27 -212 6z m181 -31 c18
-8 40 -25 49 -38 22 -34 29 -98 16 -146 -16 -60 -54 -82 -142 -82 l-68 0 0
140 0 140 55 0 c31 0 71 -6 90 -14z"/>
<path d="M2440 6501 c0 -35 -3 -40 -25 -43 -35 -4 -36 -22 -2 -26 l27 -3 0
-85 c0 -71 3 -87 20 -104 25 -25 100 -29 100 -5 0 10 -10 15 -29 15 -44 0 -61
31 -61 112 l0 68 40 0 c29 0 40 4 40 15 0 11 -11 15 -40 15 l-40 0 0 40 c0 29
-4 40 -15 40 -11 0 -15 -11 -15 -39z"/>
<path d="M3917 6534 c-4 -4 -7 -22 -7 -41 0 -29 -3 -33 -25 -33 -16 0 -25 -6
-25 -15 0 -9 9 -15 25 -15 25 0 25 -1 25 -79 0 -65 4 -83 21 -105 18 -23 28
-27 62 -24 52 4 63 28 13 28 -46 0 -56 19 -56 109 l0 70 37 3 c52 4 56 28 4
28 -39 0 -40 1 -43 37 -3 35 -17 51 -31 37z"/>
<path d="M9827 6533 c-4 -3 -7 -21 -7 -40 0 -29 -3 -33 -26 -33 -31 0 -28 -23
3 -28 19 -3 21 -11 24 -87 5 -103 20 -125 86 -125 32 0 43 4 43 15 0 10 -10
15 -27 15 -50 0 -58 13 -61 100 l-4 80 41 0 c30 0 41 4 41 15 0 11 -11 15 -40
15 l-40 0 0 40 c0 38 -14 52 -33 33z"/>
<path d="M1910 6457 c-33 -11 -52 -46 -20 -38 8 2 37 6 64 9 52 5 66 -4 66
-44 0 -19 -7 -22 -60 -26 -93 -7 -126 -53 -79 -112 16 -21 29 -26 64 -26 26 0
47 6 56 16 11 14 13 14 21 0 5 -9 16 -16 23 -16 12 0 15 19 15 94 0 111 -3
122 -41 141 -33 18 -62 18 -109 2z"/>
<path d="M2147 6464 c-4 -4 -7 -81 -7 -171 0 -151 1 -164 18 -161 13 2 18 15
20 61 3 57 3 57 25 42 31 -22 89 -19 120 6 50 39 56 149 10 194 -37 37 -106
42 -133 10 -10 -12 -15 -11 -29 6 -9 11 -20 17 -24 13z m156 -51 c36 -40 28
-131 -13 -153 -30 -16 -68 -12 -90 10 -25 25 -27 105 -4 138 19 28 83 31 107
5z"/>
<path d="M2640 6457 c-33 -11 -52 -47 -20 -38 8 3 34 6 58 9 49 5 72 -9 72
-44 0 -22 -4 -24 -44 -24 -49 0 -96 -15 -108 -33 -15 -23 -8 -66 14 -87 26
-24 84 -27 116 -4 20 14 22 14 22 -1 0 -10 7 -15 18 -13 15 3 17 16 17 100 0
85 -3 100 -21 118 -26 26 -79 33 -124 17z"/>
<path d="M2993 6463 c-10 -3 -13 -38 -13 -124 0 -112 1 -119 20 -119 18 0 20
7 20 83 0 102 14 127 69 127 55 0 61 -12 61 -117 0 -86 1 -93 20 -93 19 0 20
7 20 90 0 49 -5 100 -11 114 -22 48 -98 58 -141 19 -16 -15 -18 -15 -18 0 0
19 -10 26 -27 20z"/>
<path d="M3430 6452 c-31 -15 -35 -21 -35 -57 0 -44 12 -54 93 -75 39 -10 43
-14 40 -38 -3 -25 -6 -27 -53 -26 -27 1 -60 4 -72 9 -17 5 -23 3 -23 -7 0 -21
44 -38 99 -38 60 0 94 27 89 73 -3 34 -22 47 -94 66 -52 14 -64 39 -32 64 16
14 30 17 53 12 16 -4 40 -9 53 -12 35 -8 26 16 -13 33 -45 18 -62 18 -105 -4z"/>
<path d="M3673 6458 c-58 -19 -41 -36 35 -35 l67 2 3 -31 3 -31 -63 -6 c-48
-4 -67 -11 -80 -27 -25 -30 -22 -56 7 -85 28 -29 95 -35 115 -10 7 8 16 15 21
15 5 0 9 -7 9 -15 0 -8 7 -15 15 -15 24 0 22 190 -3 220 -21 25 -82 34 -129
18z"/>
<path d="M4113 6458 c-58 -19 -41 -36 35 -35 l67 2 3 -31 3 -31 -63 -6 c-48
-4 -67 -11 -80 -27 -25 -30 -22 -56 7 -85 28 -29 95 -35 115 -10 7 8 16 15 21
15 5 0 9 -7 9 -15 0 -8 7 -15 15 -15 24 0 22 190 -3 220 -21 25 -82 34 -129
18z"/>
<path d="M4315 6461 c-3 -6 16 -61 42 -123 66 -153 73 -153 136 -7 27 61 46
118 42 126 -8 23 -29 1 -50 -55 -10 -26 -27 -67 -38 -91 l-19 -44 -42 98 c-39
94 -57 118 -71 96z"/>
<path d="M4585 6458 c-3 -8 15 -63 41 -124 42 -99 45 -112 34 -139 -24 -60
-24 -67 -4 -63 14 2 37 46 87 161 37 86 65 161 62 167 -13 22 -34 -7 -70 -96
-20 -52 -39 -93 -41 -91 -2 2 -21 46 -43 97 -39 93 -56 115 -66 88z"/>
<path d="M4900 6457 c-33 -11 -52 -47 -20 -38 8 3 35 7 59 9 47 5 71 -12 71
-50 0 -15 -8 -18 -45 -18 -25 0 -61 -7 -80 -14 -31 -13 -35 -19 -35 -50 0 -48
29 -76 78 -76 21 0 48 7 60 16 20 14 22 14 22 -1 0 -10 7 -15 18 -13 15 3 17
16 17 100 0 85 -3 100 -21 118 -26 26 -79 33 -124 17z"/>
<path d="M5673 6456 c-40 -18 -63 -62 -63 -122 0 -39 5 -51 34 -80 29 -29 41
-34 79 -34 57 0 97 15 97 36 0 12 -5 15 -22 9 -13 -4 -42 -10 -65 -12 -32 -4
-45 -1 -62 16 -12 12 -21 30 -21 41 0 18 7 20 85 20 66 0 87 3 91 15 8 20 -13
79 -35 99 -26 23 -80 29 -118 12z"/>
<path d="M5923 6455 c-34 -15 -50 -48 -39 -83 7 -20 35 -35 95 -50 71 -17 63
-72 -11 -72 -22 0 -49 5 -60 11 -31 17 -45 -5 -17 -25 31 -21 117 -21 147 0
18 12 22 24 20 52 -3 40 -22 54 -95 72 -36 9 -43 15 -43 36 0 37 39 51 89 32
39 -15 51 -14 51 4 0 11 -63 38 -87 38 -10 -1 -32 -7 -50 -15z"/>
<path d="M6295 6461 c-77 -33 -87 -182 -16 -221 29 -15 93 -12 119 6 21 15 22
14 22 -13 0 -47 -25 -73 -71 -73 -22 0 -49 5 -60 11 -12 6 -28 8 -37 4 -14 -5
-14 -7 1 -22 11 -11 39 -18 80 -21 56 -4 67 -1 93 21 l29 25 0 143 c0 109 -3
143 -13 147 -7 2 -16 -5 -19 -17 -5 -20 -7 -21 -23 -6 -21 19 -78 28 -105 16z
m105 -51 c27 -27 27 -89 -1 -124 -46 -59 -129 -17 -129 65 0 50 27 79 75 79
22 0 43 -8 55 -20z"/>
<path d="M6547 6464 c-4 -4 -7 -61 -7 -126 0 -108 2 -119 18 -116 14 3 17 17
20 88 2 60 7 89 19 102 19 21 76 24 91 5 6 -7 12 -53 14 -103 3 -81 5 -89 23
-89 19 0 20 7 20 98 0 96 -1 100 -28 123 -15 13 -39 24 -52 24 -30 0 -75 -20
-75 -33 0 -5 -8 1 -18 13 -9 12 -21 18 -25 14z"/>
<path d="M6990 6457 c-33 -11 -52 -47 -20 -38 8 3 35 7 59 9 47 5 71 -12 71
-50 0 -15 -8 -18 -45 -18 -25 0 -61 -7 -80 -14 -31 -13 -35 -19 -35 -50 0 -50
28 -76 82 -76 24 0 49 7 60 17 17 15 18 15 18 0 0 -10 8 -17 20 -17 19 0 20 7
20 90 0 103 -11 135 -53 150 -37 12 -53 12 -97 -3z"/>
<path d="M7217 6463 c-4 -3 -7 -60 -7 -125 0 -111 1 -118 20 -118 18 0 20 7
20 69 0 71 12 120 33 133 19 12 74 9 85 -5 6 -7 12 -53 14 -102 3 -76 6 -90
21 -93 15 -3 17 7 17 95 0 111 -11 137 -60 148 -21 5 -43 1 -70 -13 -37 -18
-39 -18 -43 0 -5 18 -18 23 -30 11z"/>
<path d="M9307 6463 c-4 -3 -7 -51 -7 -105 0 -85 3 -101 20 -118 25 -25 101
-28 121 -4 11 14 13 14 21 0 5 -9 16 -16 23 -16 12 0 15 22 15 118 0 65 -3
121 -6 125 -3 3 -12 3 -20 0 -10 -4 -14 -26 -14 -89 0 -95 -16 -124 -68 -124
-45 0 -52 16 -52 111 0 60 -4 90 -13 98 -8 6 -17 8 -20 4z"/>
<path d="M9645 6463 c-85 -22 -110 -166 -38 -222 43 -35 153 -24 153 14 0 17
-26 20 -35 5 -8 -13 -61 -13 -85 0 -40 22 -48 112 -12 153 17 19 72 23 102 7
24 -13 38 6 19 25 -16 16 -75 26 -104 18z"/>
<path d="M10170 6463 c-32 -12 -70 -58 -76 -91 -9 -46 11 -106 43 -131 52 -42
142 -23 172 36 14 27 14 93 1 127 -16 43 -95 77 -140 59z m94 -55 c9 -13 16
-43 16 -68 0 -58 -26 -90 -74 -90 -47 0 -71 30 -71 90 0 62 23 90 76 90 28 0
42 -6 53 -22z"/>
<path d="M10391 6456 c-8 -9 -11 -51 -9 -122 3 -94 5 -109 21 -112 15 -3 17 6
17 73 0 73 10 111 34 127 18 12 73 9 84 -5 6 -7 12 -53 14 -102 3 -76 6 -90
21 -93 15 -3 17 7 17 95 0 113 -11 139 -65 149 -26 4 -44 1 -70 -15 -27 -16
-35 -17 -35 -6 0 21 -16 27 -29 11z"/>
<path d="M1828 5958 c-3 -50 -5 -53 -32 -58 -20 -3 -34 -16 -47 -40 -20 -37
-55 -61 -76 -53 -9 4 -13 -5 -13 -29 0 -19 -7 -43 -15 -54 -8 -10 -15 -27 -15
-36 0 -10 -4 -18 -9 -18 -11 0 -24 -46 -24 -85 1 -16 -4 -36 -10 -43 -7 -9 -4
-17 12 -29 16 -11 20 -18 12 -26 -15 -15 -14 -94 2 -100 42 -15 -60 -28 -503
-61 -272 -20 -551 -41 -620 -47 -69 -6 -190 -16 -270 -22 l-145 -12 0 -114 0
-114 40 -13 40 -12 -32 -1 c-21 -1 -36 -8 -42 -20 -12 -22 -1 -34 39 -45 14
-3 50 -13 80 -22 30 -8 89 -21 130 -30 41 -8 103 -22 137 -30 35 -9 68 -14 75
-12 6 2 -29 14 -78 27 -112 29 -175 51 -169 61 2 4 -24 10 -58 14 -34 3 -79
12 -101 20 -35 12 -36 14 -15 19 38 10 71 8 64 -4 -5 -7 7 -8 37 -4 29 4 62 1
96 -9 120 -37 150 -44 202 -49 53 -6 54 -6 25 8 -16 8 -60 22 -97 32 -38 9
-68 21 -68 25 0 4 -11 8 -24 8 -13 0 -31 3 -40 6 -14 5 -14 8 0 21 8 9 18 12
22 9 3 -4 0 -11 -8 -16 -11 -7 -8 -10 13 -10 19 0 26 4 21 11 -5 9 4 10 32 5
70 -12 179 -38 199 -46 30 -14 284 -62 298 -57 7 2 -18 9 -55 16 -37 7 -65 17
-62 22 3 5 -6 9 -20 9 -32 0 -96 15 -203 47 -46 14 -90 26 -98 27 -31 4 -27
16 6 17 32 1 33 1 9 10 -49 17 69 -2 128 -21 31 -10 100 -26 152 -36 52 -10
97 -21 100 -25 3 -3 30 -9 60 -13 30 -4 66 -10 79 -13 15 -4 22 -2 18 5 -7 10
-31 16 -162 42 -33 7 -64 16 -70 20 -5 4 -32 12 -60 19 -85 21 -155 45 -155
53 0 4 2 8 5 8 15 0 200 -32 205 -35 4 -3 22 -7 41 -9 19 -2 108 -21 199 -41
219 -49 258 -57 278 -53 9 2 -28 13 -83 25 -174 38 -188 41 -265 62 -41 11
-70 20 -65 22 6 1 -8 5 -30 9 -22 5 -65 15 -95 23 l-55 14 80 -4 c44 -2 107
-10 140 -18 123 -28 236 -47 241 -42 9 9 -65 37 -97 37 -15 0 -31 5 -34 10 -3
6 -23 10 -43 11 -20 0 -46 4 -57 9 -14 6 -4 9 37 9 55 1 131 -12 273 -45 39
-9 84 -18 100 -21 44 -8 19 11 -35 26 -25 7 -55 17 -68 22 -13 5 -34 9 -47 9
-13 0 -27 5 -30 11 -8 13 92 5 238 -18 54 -8 101 -13 104 -9 4 3 -6 6 -21 6
-15 0 -25 4 -21 9 3 5 -3 12 -12 14 -36 9 46 7 126 -4 77 -10 103 -8 88 8 -4
3 -22 6 -39 6 -18 -1 -49 4 -68 10 -19 6 -66 16 -105 23 l-70 13 70 -5 c39 -3
97 -7 129 -9 33 -2 81 -9 108 -15 27 -5 68 -10 91 -10 24 0 48 -5 55 -12 9 -9
15 -9 24 0 9 9 8 12 -5 12 -9 0 -17 5 -17 10 0 6 13 10 29 10 46 0 45 17 -2
26 l-42 8 57 4 c31 1 94 -4 139 -13 98 -18 127 -19 112 -4 -6 6 -46 15 -89 20
-42 6 -84 14 -92 18 -18 10 49 6 213 -13 17 -2 47 -7 68 -11 22 -5 37 -4 37 2
0 6 -40 16 -88 22 -106 15 -133 27 -68 32 25 2 46 1 46 -2 0 -3 30 -9 68 -13
37 -4 85 -9 107 -12 27 -4 35 -2 25 4 -8 5 -41 13 -73 17 -63 7 -70 16 -16 17
19 0 47 7 62 15 17 9 40 12 57 8 16 -3 38 -1 49 4 11 6 54 12 96 13 42 0 77 4
79 7 2 3 39 5 83 4 64 -2 86 2 121 20 32 16 44 19 50 10 6 -10 14 -9 36 3 18
9 43 12 65 9 33 -5 34 -4 11 6 -14 6 -47 8 -73 5 -33 -3 -46 -2 -41 6 5 7 32
8 88 3 135 -14 156 -12 176 14 10 14 20 20 24 13 3 -6 0 -13 -6 -16 -7 -3 8
-4 34 -2 26 2 52 -2 59 -8 9 -8 10 -8 5 1 -6 10 16 14 144 23 8 0 50 6 93 12
58 9 83 9 96 1 14 -9 21 -9 30 0 7 7 44 12 89 13 42 0 93 4 112 8 53 11 142
23 170 24 14 0 50 5 80 11 30 6 102 15 160 21 146 14 181 20 174 31 -3 5 -9 7
-14 4 -5 -3 -11 -1 -15 5 -4 6 9 10 34 10 23 0 41 -4 41 -10 0 -13 77 -13 85
-1 3 5 -7 12 -22 14 -16 3 1 3 37 1 39 -2 60 0 51 5 -9 6 26 12 94 16 79 6
109 4 115 -4 7 -13 56 -5 66 10 8 13 42 11 46 -3 3 -9 20 -9 74 1 38 6 124 17
192 24 98 10 122 10 122 0 0 -15 28 -17 49 -4 11 7 10 11 -5 20 -16 10 -15 11
11 6 29 -5 143 9 153 19 7 8 -8 57 -16 52 -4 -2 -5 19 -3 47 3 53 14 69 38 60
8 -3 13 -22 13 -54 0 -27 5 -49 10 -49 14 0 13 107 -1 116 -7 4 -25 7 -40 6
-26 -1 -29 3 -29 30 0 19 -4 28 -12 26 -9 -3 -14 -31 -16 -82 -3 -73 -4 -77
-25 -74 -18 2 -23 11 -25 41 -3 32 0 37 17 37 27 0 27 20 1 27 -11 3 -20 12
-20 19 0 8 -6 14 -12 14 -17 0 -42 -54 -28 -58 5 -2 10 -23 10 -47 0 -32 5
-47 18 -54 14 -8 15 -10 2 -15 -53 -18 -55 -16 -51 61 2 59 0 74 -13 79 -20 8
-21 24 -1 24 8 0 15 5 15 10 0 6 -7 13 -15 16 -10 4 -15 21 -15 55 0 39 -3 47
-15 43 -8 -4 -15 -2 -15 4 0 6 6 13 13 15 6 3 2 6 -11 6 -15 1 -21 -3 -16 -11
5 -8 2 -9 -9 -5 -9 3 -22 0 -29 -7 -17 -17 -118 -31 -118 -16 0 5 -7 10 -15
10 -21 0 -19 20 3 21 25 1 -26 17 -60 18 l-28 1 0 -107 c0 -83 -3 -104 -12
-95 -7 7 -26 12 -43 12 -41 0 -55 -16 -55 -62 0 -44 24 -62 75 -56 19 2 32 1
29 -3 -2 -4 -30 -10 -62 -14 -31 -3 -97 -10 -147 -15 -86 -10 -364 -30 -885
-66 -210 -14 -236 -18 -249 -35 -9 -13 -25 -19 -55 -19 -23 0 -46 -4 -52 -9
-25 -23 -125 -47 -304 -70 -35 -5 -66 -14 -68 -19 -2 -6 -35 -14 -73 -18 -38
-4 -69 -11 -69 -15 0 -5 9 -9 19 -9 11 0 23 -4 26 -10 4 -6 -10 -10 -34 -10
-32 0 -39 3 -34 15 5 14 -4 15 -58 11 -60 -5 -262 -16 -374 -21 -145 -7 -306
-7 -312 -1 -4 3 -9 25 -12 49 -6 40 -8 42 -44 45 -40 3 -106 32 -74 32 27 0
33 29 8 46 -11 8 -21 21 -21 27 0 7 -9 30 -20 52 -11 22 -20 51 -20 65 0 14
-4 30 -9 36 -5 5 -11 23 -13 39 -3 27 -6 30 -39 30 -31 0 -35 2 -31 23 6 28
-27 91 -48 94 -8 0 -23 0 -33 0 -26 -3 -57 38 -50 66 4 16 1 22 -10 22 -12 0
-17 -13 -19 -52z"/>
<path d="M735 3782 c17 -10 48 -25 71 -34 22 -9 68 -29 102 -45 l62 -28 0 -45
c1 -25 3 -80 6 -122 5 -75 4 -78 -17 -78 -17 0 -19 -3 -10 -14 21 -25 0 -45
-70 -68 -38 -12 -67 -24 -64 -26 2 -3 40 1 83 8 93 14 129 4 117 -33 -3 -12
-7 -28 -9 -36 -2 -11 -99 -48 -131 -50 -3 0 -21 -3 -40 -7 -47 -8 -97 2 -126
27 -12 11 -30 18 -38 17 -17 -4 -28 -28 -12 -28 6 0 41 -19 77 -42 67 -43 69
-55 7 -57 -13 -1 -23 -5 -23 -11 0 -6 22 -8 53 -5 49 4 117 -11 117 -26 0 -4
11 -10 24 -13 35 -9 41 -35 10 -46 -14 -6 -31 -10 -39 -10 -20 0 -45 -11 -45
-20 0 -4 28 -1 63 6 90 19 111 17 164 -16 26 -16 50 -30 55 -30 11 0 48 -33
48 -43 0 -4 -4 -6 -8 -3 -4 2 -14 0 -22 -5 -11 -7 -5 -9 20 -8 43 2 113 -23
156 -56 18 -14 37 -25 42 -25 6 0 12 -7 16 -15 3 -8 14 -15 24 -15 10 0 27 -9
37 -20 10 -11 24 -20 30 -20 7 0 18 -7 25 -15 7 -8 20 -15 30 -15 10 0 24 -7
31 -16 7 -9 22 -19 33 -23 15 -6 9 -11 -31 -24 -28 -9 -72 -19 -97 -22 -26 -3
-59 -11 -74 -17 -44 -18 0 -22 56 -5 26 9 77 21 114 27 l66 12 71 -37 c39 -21
71 -43 71 -51 0 -7 12 -14 28 -16 48 -5 32 -30 -28 -43 -30 -7 -81 -19 -112
-28 -31 -9 -78 -19 -105 -22 -52 -7 -136 -35 -129 -43 3 -2 49 6 103 18 143
33 295 69 320 76 17 5 30 -3 58 -32 19 -22 35 -33 35 -26 0 7 22 -5 48 -27 27
-23 56 -41 65 -41 9 0 17 -4 17 -10 0 -10 -19 -14 -50 -12 -8 1 -28 -5 -45
-12 -16 -8 -61 -22 -100 -31 -38 -9 -104 -27 -145 -39 -97 -31 -160 -41 -160
-27 0 6 -7 11 -15 11 -8 0 -51 29 -95 64 -70 56 -78 66 -63 75 15 9 12 10 -15
11 -28 0 -84 30 -112 60 -3 3 -24 20 -47 39 -24 18 -43 36 -43 41 0 4 18 10
40 14 85 13 140 28 135 36 -2 4 -49 -2 -103 -13 l-99 -21 -44 21 c-24 12 -53
30 -63 42 -11 12 -24 21 -30 21 -12 1 -56 35 -56 43 0 3 6 7 13 10 6 2 2 2
-11 0 -20 -3 -84 26 -102 47 -3 3 -24 18 -47 33 -24 15 -43 31 -43 36 0 5 -15
13 -32 16 -18 4 -39 12 -46 18 -7 5 -15 7 -18 4 -8 -8 48 -56 89 -78 21 -11
26 -18 16 -22 -10 -4 -9 -6 4 -6 11 -1 30 -10 44 -21 14 -11 32 -20 39 -20 8
0 14 -4 14 -10 0 -5 5 -10 11 -10 6 0 25 -11 43 -25 46 -38 49 -39 79 -52 15
-7 27 -17 27 -23 0 -5 7 -10 15 -10 8 0 15 -4 15 -8 0 -5 18 -18 40 -31 22
-12 40 -26 40 -30 0 -5 10 -12 23 -15 21 -7 21 -7 2 -15 -31 -14 -97 -32 -125
-35 -52 -6 -180 -38 -186 -47 -3 -5 -2 -9 3 -9 13 0 140 28 228 50 118 29 147
25 207 -29 9 -9 39 -32 67 -51 53 -37 56 -50 13 -51 -15 0 -58 -11 -97 -25
-38 -13 -56 -22 -40 -19 17 3 46 8 65 11 19 3 44 9 55 14 50 21 82 20 105 -6
13 -13 28 -24 33 -24 6 0 29 -16 53 -35 32 -27 51 -35 81 -35 l38 1 -29 15
c-36 20 -25 31 44 44 30 6 59 15 64 20 6 6 21 10 35 10 13 0 38 4 55 9 108 32
259 62 283 56 27 -6 137 -77 158 -101 6 -6 25 -17 42 -24 18 -7 30 -16 27 -21
-3 -5 20 -9 51 -9 32 0 54 4 50 9 -3 6 -35 24 -70 40 -36 17 -65 35 -65 40 0
5 15 12 33 16 17 3 44 11 59 17 32 12 102 2 92 -13 -4 -7 1 -9 10 -7 10 1 16
7 16 13 -2 10 26 23 50 24 13 0 13 -1 -1 -9 -10 -6 -15 -20 -13 -43 3 -31 1
-33 -24 -32 -15 2 -19 0 -9 -2 10 -2 25 -15 33 -28 l16 -24 719 -1 c709 0 721
0 792 21 39 12 77 26 84 31 13 11 59 1 92 -21 22 -14 22 -15 5 -22 -11 -4 19
-8 66 -8 l85 -1 -40 23 c-37 20 -63 33 -137 67 -16 8 -24 18 -21 27 4 11 0 13
-19 8 -17 -4 -31 -1 -43 12 -10 10 -20 16 -22 14 -6 -5 -65 20 -95 41 -14 10
-32 18 -39 18 -7 0 -20 6 -28 13 -9 8 -41 24 -71 37 -71 29 -159 69 -290 131
-58 28 -127 61 -155 74 -27 13 -113 55 -190 93 -77 38 -157 75 -177 81 -44 14
-56 29 -37 43 10 7 8 7 -8 3 -15 -4 -53 8 -115 35 -133 60 -198 93 -198 102 0
4 -6 8 -14 8 -13 0 -197 86 -251 117 -11 7 -65 33 -120 59 -55 26 -156 74
-225 107 -69 32 -150 70 -180 84 -30 13 -85 40 -123 59 -69 35 -93 42 -82 24
3 -5 -1 -10 -9 -10 -9 0 -16 -3 -16 -7 0 -5 21 -8 47 -9 30 -1 50 -7 58 -17 7
-10 22 -17 33 -17 11 0 27 -7 36 -15 8 -8 23 -15 34 -15 11 0 30 -8 43 -18 13
-11 36 -22 52 -26 15 -3 27 -10 27 -15 0 -5 13 -12 29 -16 16 -3 35 -13 41
-21 7 -7 30 -19 51 -24 22 -6 39 -14 39 -19 0 -4 -39 -15 -87 -24 -49 -9 -99
-19 -113 -22 -15 -4 -33 0 -44 8 -19 14 -19 15 3 26 12 7 50 19 84 26 34 7 53
14 42 14 -11 1 -52 -6 -90 -15 -79 -17 -83 -18 -107 -16 -30 3 -20 30 13 37
17 4 28 9 26 11 -2 3 -25 0 -50 -6 -51 -11 -81 -5 -73 16 7 18 -4 23 -29 14
-13 -5 -26 -2 -38 8 -17 15 -17 16 5 29 22 13 21 13 -12 7 -40 -8 -70 -8 -79
1 -11 12 31 34 76 41 24 3 42 9 39 12 -3 3 -39 -1 -80 -8 -41 -7 -83 -9 -93
-5 -15 6 -11 10 22 26 l40 18 -57 -6 c-48 -5 -58 -3 -58 9 0 16 94 40 153 39
38 0 26 14 -37 44 -62 29 -67 30 -60 10 4 -11 -1 -15 -17 -15 -13 0 -56 -7
-96 -15 -80 -17 -112 -12 -91 13 12 13 8 14 -29 9 -35 -6 -43 -4 -43 8 0 8 6
16 13 17 6 0 -8 4 -33 7 -31 4 -44 10 -42 20 2 10 -4 12 -21 7 -25 -6 -54 14
-40 27 3 4 -10 7 -30 7 -39 0 -53 25 -19 33 9 2 -2 2 -26 -1 -38 -4 -43 -2
-40 14 2 16 -3 19 -29 18 -23 -1 -33 3 -33 13 0 10 -6 12 -20 8 -13 -4 -43 5
-83 24 -102 49 -178 81 -196 81 -10 0 -4 -7 14 -18z m420 -575 c6 -7 20 -12
33 -11 28 2 29 -12 1 -21 -12 -4 -30 -14 -40 -24 -11 -9 -36 -22 -57 -29 -35
-11 -34 -12 31 -8 37 3 72 8 78 11 6 4 13 -2 16 -14 6 -23 23 -27 41 -9 10 9
16 8 29 -5 16 -16 16 -17 -2 -18 -18 0 -18 -1 3 -9 25 -10 30 -40 7 -40 -8 0
-15 -4 -15 -8 0 -12 -132 -32 -160 -25 -14 4 -47 21 -74 40 -26 18 -53 33 -58
33 -20 0 4 19 32 25 17 4 30 11 30 17 0 6 -7 7 -17 3 -59 -25 -92 -29 -111
-12 -10 9 -22 17 -25 17 -4 0 -28 13 -54 29 -56 35 -58 34 92 60 114 20 203
19 220 -2z m211 -209 c5 -7 3 -8 -6 -3 -8 5 -11 3 -8 -6 3 -9 17 -13 39 -11
27 2 39 -3 57 -22 12 -15 26 -26 32 -26 5 0 10 -4 10 -10 0 -5 -16 -10 -35
-10 -19 0 -35 -4 -35 -9 0 -5 -16 -15 -36 -21 -39 -13 -94 1 -94 25 0 7 -18
15 -40 19 -23 3 -43 13 -46 21 -4 8 -13 15 -22 15 -14 0 -14 2 -2 14 19 17
140 29 140 13 0 -6 8 -4 17 6 20 20 20 20 29 5z m191 -123 c0 -8 -5 -15 -10
-15 -6 0 -8 -3 -4 -6 3 -4 27 -8 51 -10 57 -3 77 -14 48 -25 -25 -9 -30 -29
-7 -29 29 0 15 -20 -15 -21 -51 -3 -55 -4 -61 -13 -9 -12 -115 47 -111 62 1 7
-10 12 -26 12 -16 0 -37 6 -48 14 -24 19 -11 24 69 30 32 2 61 6 64 10 13 12
50 6 50 -9z m212 -122 c-3 -19 2 -33 11 -33 5 0 7 7 4 15 -4 8 -1 15 5 15 6 0
13 -11 17 -25 3 -14 10 -25 16 -25 5 0 7 4 3 9 -3 5 -1 12 5 16 5 3 10 -3 10
-14 0 -13 -7 -21 -17 -21 -12 0 -14 -3 -7 -10 13 -13 61 -16 97 -6 38 11 35
-9 -4 -23 -18 -6 -40 -11 -50 -11 -11 0 -19 -4 -19 -9 0 -5 -17 -12 -38 -16
-41 -7 -95 14 -114 45 -7 10 -17 16 -23 14 -7 -3 -18 2 -25 11 -7 8 -21 15
-31 15 -37 0 -28 19 13 30 24 6 52 15 63 20 25 11 85 13 84 3z m328 -125 c-2
-7 -17 -13 -33 -13 -22 0 -30 -5 -32 -22 -2 -14 -12 -25 -25 -28 -12 -2 -31
-6 -42 -8 -11 -3 -3 -5 17 -6 20 0 40 4 43 9 10 16 81 12 95 -6 23 -27 48 -36
70 -24 13 7 20 7 20 0 0 -14 -66 -40 -104 -40 -17 0 -40 -7 -50 -15 -20 -15
-41 -11 -31 6 4 5 1 9 -4 9 -6 0 -11 -7 -11 -15 0 -22 -14 -19 -64 16 -51 34
-56 45 -26 54 30 10 24 25 -10 25 -23 0 -28 -3 -23 -16 3 -9 2 -15 -3 -12 -5
2 -24 10 -41 17 -18 7 -33 16 -33 20 0 9 124 40 201 50 92 12 91 12 86 -1z
m1657 -163 c21 -9 26 -15 16 -18 -8 -3 -66 -18 -129 -35 -108 -29 -116 -30
-144 -15 -29 14 -30 16 -13 29 10 7 44 19 75 26 31 6 67 18 81 25 26 14 61 10
114 -12z m-1574 -19 c0 -15 21 -26 52 -26 15 0 19 -5 15 -20 -4 -17 -2 -18 14
-9 10 5 19 6 20 2 0 -4 4 1 9 12 8 19 9 19 9 -2 1 -17 7 -23 22 -23 18 0 19
-3 9 -15 -20 -24 -2 -38 26 -21 28 19 67 21 62 4 -3 -7 -29 -18 -59 -24 -30
-6 -63 -14 -75 -18 -15 -5 -36 4 -72 29 -28 19 -56 35 -62 35 -5 0 -10 4 -10
9 0 5 -15 14 -32 21 -64 25 -65 34 -7 46 75 16 79 16 79 0z"/>
<path d="M13277 3195 c-9 -22 1 -38 19 -31 8 3 14 -1 14 -9 0 -10 -11 -15 -35
-15 -21 0 -34 5 -32 11 1 6 -3 13 -10 16 -7 2 -11 -4 -10 -16 1 -13 8 -21 19
-21 9 0 21 -6 25 -14 4 -8 17 -14 27 -13 10 1 21 -4 23 -10 3 -8 -4 -13 -18
-13 -29 0 -22 -6 16 -13 28 -5 31 -3 29 21 0 14 -6 28 -12 30 -7 2 -10 7 -7
12 6 10 55 0 55 -11 0 -5 9 -9 19 -9 12 0 21 -8 23 -22 2 -13 12 -22 25 -24
35 -6 36 12 1 40 -36 28 -18 37 19 11 22 -15 41 -5 28 15 -3 6 -1 10 4 10 11
0 15 -13 12 -37 -3 -22 16 -14 23 10 9 34 8 37 -15 37 -11 0 -23 8 -25 18 -7
25 -94 18 -101 -9 -5 -19 -43 -27 -43 -9 0 6 -6 10 -14 10 -8 0 -23 12 -34 26
-16 23 -20 25 -25 9z"/>
<path d="M610 3095 c-36 -7 -103 -20 -148 -30 -61 -13 -87 -14 -95 -6 -6 6
-20 11 -32 11 -31 -1 46 -68 120 -105 22 -10 59 -33 82 -49 42 -29 67 -30 44
-2 -9 11 -9 15 1 19 7 3 3 6 -8 6 -12 1 -27 8 -34 16 -7 8 -16 15 -21 15 -12
0 -98 54 -99 62 0 4 21 10 48 13 26 4 58 10 72 15 14 5 52 14 85 21 63 12 107
29 70 27 -11 0 -49 -6 -85 -13z"/>
<path d="M70 2781 c0 -5 17 -24 38 -42 20 -18 36 -37 34 -41 -1 -4 7 -8 18 -8
19 0 78 -41 133 -91 32 -31 33 -36 10 -42 -10 -2 -4 -3 14 -1 27 2 47 -9 117
-64 47 -37 86 -72 86 -79 0 -6 29 -31 65 -55 36 -23 65 -45 65 -49 0 -4 17
-17 37 -29 29 -17 34 -23 22 -31 -11 -7 -9 -9 7 -9 12 0 38 -13 59 -30 38 -30
89 -41 80 -17 -3 6 -21 23 -40 35 -19 13 -46 39 -60 58 -14 19 -33 34 -42 34
-9 0 -13 6 -9 15 4 10 -1 15 -15 15 -20 0 -86 40 -125 75 -12 11 -34 28 -49
39 -41 28 -40 28 178 75 21 5 41 12 45 16 9 9 -48 0 -152 -26 -107 -26 -122
-24 -171 15 -23 19 -60 44 -83 56 -23 12 -40 26 -37 31 3 4 -7 15 -22 23 -15
7 -44 28 -63 46 -38 35 -119 90 -132 90 -4 0 -8 -4 -8 -9z"/>
<path d="M540 1270 l0 -280 1445 0 1445 0 0 280 0 280 -1445 0 -1445 0 0 -280z
m909 106 c22 -23 7 -30 -34 -15 -41 15 -68 5 -73 -28 -3 -17 7 -24 55 -39 56
-18 58 -20 61 -57 3 -35 1 -39 -34 -53 -31 -13 -45 -14 -76 -5 -35 11 -55 27
-45 37 2 3 25 -1 50 -8 37 -9 48 -9 61 1 34 28 14 50 -56 65 -59 13 -71 83
-19 111 31 18 88 13 110 -9z m338 13 c15 -5 31 -16 35 -22 13 -21 9 -60 -9
-79 -15 -17 -15 -21 6 -59 17 -29 20 -44 13 -51 -8 -8 -16 -2 -29 22 -27 49
-50 70 -78 70 -23 0 -25 -4 -25 -45 0 -33 -4 -45 -15 -45 -12 0 -15 18 -15
104 0 74 4 106 13 109 22 9 75 7 104 -4z m697 5 c30 -12 5 -24 -50 -24 l-54 0
0 -35 0 -35 56 0 c73 0 70 -24 -4 -28 -52 -3 -52 -3 -52 -38 l0 -34 61 0 c37
0 58 -4 54 -10 -3 -5 -37 -10 -76 -10 l-69 0 0 104 c0 74 4 106 13 109 18 8
103 8 121 1z"/>
<path d="M15700 1090 l0 -460 1440 0 1440 0 0 460 0 460 -1440 0 -1440 0 0
-460z m1387 299 c15 -5 31 -16 35 -22 13 -21 9 -60 -9 -79 -15 -17 -15 -21 6
-59 17 -29 20 -44 13 -51 -8 -8 -16 -2 -29 22 -27 49 -50 70 -78 70 -23 0 -25
-4 -25 -45 0 -33 -4 -45 -15 -45 -12 0 -15 18 -15 104 0 74 4 106 13 109 22 9
75 7 104 -4z m217 5 c30 -12 5 -24 -50 -24 l-54 0 0 -35 0 -35 56 0 c73 0 70
-24 -4 -28 -52 -3 -52 -3 -52 -38 l0 -34 61 0 c37 0 58 -4 54 -10 -3 -5 -37
-10 -76 -10 l-69 0 0 104 c0 74 4 106 13 109 18 8 103 8 121 1z m-896 -389
c17 -20 22 -39 22 -78 0 -63 -17 -91 -64 -107 -98 -32 -173 89 -110 179 34 48
112 51 152 6z m154 -58 l53 -71 5 77 c7 116 25 100 28 -25 2 -88 0 -108 -11
-108 -8 0 -41 35 -73 78 l-59 77 -5 -78 c-3 -42 -9 -77 -15 -77 -11 0 -20 183
-10 208 7 20 23 5 87 -81z m267 69 c22 -23 7 -30 -34 -15 -41 15 -68 5 -73
-29 -3 -17 6 -23 53 -37 40 -11 59 -22 67 -40 14 -32 -10 -70 -50 -78 -48 -10
-129 20 -109 40 3 3 22 0 42 -7 50 -16 85 -6 85 25 0 20 -6 25 -37 31 -56 9
-83 30 -83 62 0 32 8 44 35 61 25 14 83 7 104 -13z m79 -62 c3 -85 18 -114 57
-114 39 0 54 29 57 114 2 52 7 81 16 84 15 5 17 -159 2 -188 -24 -44 -126 -45
-150 0 -15 29 -13 193 3 188 8 -3 13 -32 15 -84z m617 -24 c20 -47 39 -91 42
-97 10 -25 -28 -13 -39 12 -10 22 -17 25 -63 25 -46 0 -53 -3 -63 -25 -6 -14
-18 -25 -27 -25 -8 0 -15 2 -15 4 0 9 84 192 93 204 15 19 29 1 72 -98z m466
84 c56 -50 42 -155 -23 -187 -73 -36 -141 12 -141 98 0 48 23 91 56 105 30 13
85 5 108 -16z m155 -55 l59 -81 5 76 c3 42 10 77 15 79 13 3 19 -203 6 -216
-5 -5 -34 24 -75 79 l-66 87 0 -81 c0 -66 -3 -82 -15 -82 -12 0 -15 18 -15
103 0 146 4 148 86 36z"/>
<path d="M16290 990 c-14 -14 -20 -33 -20 -65 0 -78 56 -110 105 -60 50 49 23
145 -40 145 -14 0 -34 -9 -45 -20z"/>
<path d="M17880 988 c-29 -31 -27 -98 3 -126 50 -47 107 -13 107 63 0 76 -63
113 -110 63z"/>
<path d="M4120 1087 c0 -24 80 -241 95 -256 11 -11 15 -9 28 15 8 16 25 62 38
102 13 39 26 72 30 72 3 0 21 -42 39 -92 32 -91 47 -115 62 -100 17 17 97 261
88 267 -19 11 -28 -5 -60 -100 -17 -52 -35 -95 -38 -95 -4 0 -22 45 -41 100
-34 101 -53 123 -70 78 -53 -150 -64 -178 -70 -173 -3 4 -20 48 -37 98 -20 62
-36 93 -47 95 -10 2 -17 -3 -17 -11z"/>
<path d="M4557 1094 c-4 -4 -7 -65 -7 -136 l0 -128 85 0 c68 0 85 3 85 15 0
11 -16 15 -67 17 l-68 3 0 40 0 40 63 5 c34 3 62 10 62 15 0 6 -28 12 -62 15
l-63 5 -3 37 -3 37 68 3 c52 2 68 6 68 18 0 12 -16 16 -75 18 -42 1 -79 0 -83
-4z"/>
<path d="M5008 1084 c-38 -20 -58 -63 -58 -124 0 -62 22 -104 66 -125 40 -19
65 -19 109 -1 40 17 51 53 13 41 -83 -26 -130 -10 -147 49 -26 98 39 167 124
132 46 -20 45 -20 45 2 0 39 -98 56 -152 26z"/>
<path d="M5265 1090 c-11 -4 -31 -20 -45 -35 -21 -23 -25 -36 -25 -90 0 -75
22 -112 79 -134 107 -41 197 74 152 193 -24 63 -97 93 -161 66z m108 -48 c21
-21 32 -80 23 -117 -13 -53 -67 -79 -121 -59 -24 10 -45 58 -45 104 0 33 6 48
30 72 26 25 36 29 63 24 18 -4 40 -15 50 -24z"/>
<path d="M5492 965 c3 -159 21 -187 28 -45 l5 95 40 -73 c25 -45 45 -71 55
-69 8 1 31 31 50 67 l35 65 3 -82 c2 -56 7 -85 17 -93 23 -19 26 2 23 141 -4
155 -14 160 -78 37 -25 -48 -47 -88 -50 -88 -3 0 -27 41 -53 90 -69 128 -78
122 -75 -45z"/>
<path d="M5817 1094 c-4 -4 -7 -65 -7 -136 l0 -128 85 0 c68 0 85 3 85 15 0
11 -16 15 -67 17 l-68 3 0 40 0 40 63 5 c34 3 62 10 62 15 0 6 -28 12 -62 15
l-63 5 -3 37 -3 37 68 3 c52 2 68 6 68 18 0 12 -16 16 -75 18 -42 1 -79 0 -83
-4z"/>
<path d="M6094 1089 c-10 -16 15 -29 59 -29 l37 0 0 -113 c0 -63 3 -116 6
-120 3 -3 12 -3 20 0 11 4 14 31 14 119 l0 114 39 0 c37 0 68 19 54 33 -11 12
-221 8 -229 -4z"/>
<path d="M6379 1077 c-88 -59 -68 -218 30 -248 112 -33 197 86 146 207 -26 62
-114 83 -176 41z m129 -43 c32 -37 31 -116 -3 -149 -53 -53 -131 -19 -142 62
-13 101 81 158 145 87z"/>
<path d="M6764 1082 c-41 -26 -58 -69 -52 -137 8 -94 78 -143 163 -115 86 28
110 174 40 240 -34 32 -109 38 -151 12z m122 -33 c21 -17 36 -78 30 -115 -14
-72 -92 -99 -141 -49 -20 19 -25 34 -25 75 0 44 4 56 30 82 26 25 36 29 62 24
17 -3 37 -11 44 -17z"/>
<path d="M7004 1085 c-3 -8 -4 -55 -3 -104 3 -72 8 -95 25 -118 27 -36 90 -51
134 -33 48 20 60 55 60 170 0 91 -2 101 -17 98 -16 -3 -18 -17 -21 -103 -3
-116 -14 -135 -73 -135 -58 0 -69 24 -69 142 0 81 -3 98 -15 98 -9 0 -18 -7
-21 -15z"/>
<path d="M7284 1087 c-9 -24 1 -257 11 -260 6 -1 11 21 13 48 4 61 11 69 55
61 28 -5 39 -15 61 -56 15 -28 34 -50 42 -50 20 0 17 19 -11 69 -25 43 -25 44
-6 57 45 32 32 115 -21 133 -44 16 -137 14 -144 -2z"/>
<path d="M7610 1087 c0 -24 80 -241 95 -256 11 -11 15 -9 28 15 8 16 25 62 38
102 13 39 26 72 30 72 3 0 21 -42 39 -92 32 -91 47 -115 62 -100 17 17 97 261
88 267 -19 11 -28 -5 -60 -100 -17 -52 -35 -95 -38 -95 -4 0 -22 45 -41 100
-34 101 -53 123 -70 78 -53 -150 -64 -178 -70 -173 -3 4 -20 48 -37 98 -20 62
-36 93 -47 95 -10 2 -17 -3 -17 -11z"/>
<path d="M8047 1093 c-4 -3 -7 -64 -7 -135 l0 -129 88 3 c102 3 114 22 17 26
l-65 3 0 44 0 45 66 0 c48 0 65 3 62 13 -3 7 -28 13 -66 15 l-62 3 0 39 0 40
59 0 c55 0 91 16 74 33 -8 9 -158 9 -166 0z"/>
<path d="M8267 1093 c-4 -3 -7 -64 -7 -135 l0 -128 80 0 c67 0 83 3 100 20 24
24 26 67 4 99 -12 17 -13 26 -5 34 12 12 15 66 3 84 -4 6 -20 17 -35 22 -31
12 -130 15 -140 4z"/>
<path d="M8529 1071 c-16 -16 -29 -39 -29 -51 0 -27 41 -67 77 -75 62 -14 78
-22 81 -42 5 -31 -22 -46 -70 -40 -24 2 -53 8 -65 12 -17 6 -23 3 -23 -8 0
-24 37 -39 98 -41 47 -1 57 2 78 27 48 56 22 101 -68 121 -54 13 -75 32 -65
60 11 29 57 39 99 22 46 -17 63 -2 28 26 -14 11 -38 18 -67 18 -36 0 -50 -6
-74 -29z"/>
<path d="M8807 1093 c-14 -14 17 -33 54 -33 l39 0 0 -114 c0 -88 3 -115 14
-119 8 -3 17 -3 20 0 3 4 6 57 6 120 l0 113 38 0 c43 0 68 13 58 29 -8 12
-218 16 -229 4z"/>
<path d="M9065 1087 c-3 -7 -4 -67 -3 -133 l3 -119 88 -3 c69 -2 88 0 85 10
-3 8 -28 14 -71 16 l-67 3 0 44 0 45 65 0 c51 0 65 3 65 15 0 12 -14 15 -65
15 l-65 0 0 40 0 39 68 3 c52 2 67 6 67 18 0 21 -163 28 -170 7z"/>
</g>
</svg>
